<?xml version="1.0" encoding="utf-8"?>
<!-- Generator: Adobe Illustrator 24.2.3, SVG Export Plug-In . SVG Version: 6.00 Build 0)  -->
<svg version="1.1" id="Layer_1" xmlns="http://www.w3.org/2000/svg" xmlns:xlink="http://www.w3.org/1999/xlink" x="0px" y="0px"
	 viewBox="0 0 100 100" style="enable-background:new 0 0 100 100;" xml:space="preserve">
<style type="text/css">
	.st0{fill:#E8E8E8;}
	.st1{fill:#FFFFFF;}
	.st2{fill:#282828;}
	.st3{fill:#009E4F;}
</style>
<g id="Group_477" transform="translate(-37.252 -157.251)">
	<rect id="Rectangle_331" x="67.4" y="246.9" class="st0" width="39.7" height="9.2"/>
	<rect id="Rectangle_332" x="67.4" y="246.9" class="st1" width="32.1" height="9.2"/>
	<path id="Path_567" class="st2" d="M107.1,257.3H67.4c-0.6,0-1.1-0.5-1.1-1.1v-9.2c0-0.6,0.5-1.1,1.1-1.1h39.7
		c0.6,0,1.1,0.5,1.1,1.1v9.2C108.2,256.7,107.7,257.3,107.1,257.3C107.1,257.3,107.1,257.3,107.1,257.3z M68.5,255H106v-6.9H68.5
		L68.5,255z"/>
	<path id="Path_568" class="st2" d="M117.8,257.3H56.7c-0.6,0-1.1-0.5-1.1-1.1c0-0.6,0.5-1.1,1.1-1.1h61.1c0.6,0,1.1,0.5,1.1,1.1
		C118.9,256.7,118.4,257.3,117.8,257.3L117.8,257.3z"/>
	<path id="Rectangle_333" class="st0" d="M38.4,237.8h97.7l0,0v7.6c0,0.9-0.7,1.6-1.6,1.6H40c-0.9,0-1.6-0.7-1.6-1.6V237.8
		L38.4,237.8z"/>
	<path id="Rectangle_334" class="st1" d="M38.4,237.8h90.1l0,0v7.6c0,0.9-0.7,1.6-1.6,1.6H40c-0.9,0-1.6-0.7-1.6-1.6V237.8
		L38.4,237.8z"/>
	<path id="Path_569" class="st2" d="M133.1,248.1H41.5c-2.3,0-4.2-1.9-4.2-4.2v-6.1c0-0.6,0.5-1.1,1.1-1.1h97.7
		c0.6,0,1.1,0.5,1.1,1.1v6.1C137.2,246.2,135.4,248.1,133.1,248.1z M39.5,238.9v5c0,1.1,0.9,1.9,1.9,1.9h91.6c1.1,0,1.9-0.9,1.9-1.9
		v-5H39.5z"/>
	<path id="Rectangle_335" class="st0" d="M40,167.6h94.5c0.9,0,1.6,0.7,1.6,1.6v68.6l0,0H38.4l0,0v-68.6
		C38.4,168.3,39.1,167.6,40,167.6z"/>
	<path id="Rectangle_336" class="st1" d="M40,167.6h91.5l0,0v64.8c0,0.4-0.4,0.8-0.8,0.8H38.4l0,0v-64.1
		C38.4,168.3,39.1,167.6,40,167.6z"/>
	<path id="Path_570" class="st2" d="M136.1,238.9H38.4c-0.6,0-1.1-0.5-1.1-1.1v-67.2c0-2.3,1.9-4.2,4.2-4.2h91.6
		c2.3,0,4.2,1.9,4.2,4.2v67.2C137.3,238.4,136.7,238.9,136.1,238.9C136.1,238.9,136.1,238.9,136.1,238.9z M39.5,236.6H135v-66
		c0-1.1-0.9-1.9-1.9-1.9H41.5c-1.1,0-1.9,0.9-1.9,1.9L39.5,236.6z"/>
	<path id="Path_571" class="st0" d="M126.9,158.4v70.2H96.4c-5.1,0-9.2,4.1-9.2,9.1c0,0,0,0,0,0v-70.2c0-5.1,4.1-9.2,9.2-9.2
		c0,0,0,0,0,0H126.9z"/>
	<path id="Path_572" class="st1" d="M122.4,158.4v61.1c0,1.7-1.4,3.1-3.1,3.1H96.4c-5.1,0-9.2,4.1-9.2,9.1c0,0,0,0,0,0v-64.1
		c0-5.1,4.1-9.2,9.2-9.2c0,0,0,0,0,0H122.4z"/>
	<path id="Path_573" class="st3" d="M87.3,238.9c-0.6,0-1.1-0.5-1.1-1.1v-70.2c0-5.7,4.6-10.3,10.3-10.3h30.5c0.6,0,1.1,0.5,1.1,1.1
		v70.2c0,0.6-0.5,1.1-1.1,1.1H96.4c-4.4,0-8,3.6-8,8C88.4,238.4,87.9,238.9,87.3,238.9L87.3,238.9z M96.4,159.5c-4.4,0-8,3.6-8,8
		v63.8c2-2.4,4.9-3.8,8-3.8h29.4v-67.9H96.4z"/>
	<path id="Path_574" class="st0" d="M47.6,158.4v70.2h30.5c5.1,0,9.2,4.1,9.2,9.1c0,0,0,0,0,0v-70.2c0-5.1-4.1-9.2-9.2-9.2
		c0,0,0,0,0,0H47.6z"/>
	<path id="Path_575" class="st1" d="M47.6,158.4v64.1h30.5c0,0,3,0,4.6,1.2v-56.2c0-5.1-4.1-9.2-9.2-9.2c0,0,0,0,0,0H47.6z"/>
	<path id="Path_576" class="st3" d="M87.2,238.9c-0.6,0-1.1-0.5-1.1-1.1c0-4.4-3.6-8-8-8H47.6c-0.6,0-1.1-0.5-1.1-1.1v-70.2
		c0-0.6,0.5-1.1,1.1-1.1h30.5c5.7,0,10.3,4.6,10.3,10.3v70.2C88.4,238.4,87.9,238.9,87.2,238.9z M48.7,227.5h29.4
		c3.1,0,6.1,1.4,8,3.8v-63.8c0-4.4-3.6-8-8-8H48.7V227.5z"/>
	<path id="Path_577" class="st3" d="M117.8,170.2h-9.1c-0.6,0-1.1-0.5-1.1-1.1c0-0.6,0.5-1.1,1.1-1.1h9.1c0.6,0,1.1,0.5,1.1,1.1
		C118.9,169.7,118.4,170.2,117.8,170.2z"/>
	<path id="Path_578" class="st3" d="M102.6,170.2h-7.7c-0.6,0-1.1-0.5-1.1-1.1c0-0.6,0.5-1.1,1.1-1.1h7.7c0.6,0,1.1,0.5,1.1,1.1
		C103.7,169.7,103.2,170.2,102.6,170.2z"/>
	<path id="Path_579" class="st3" d="M111.7,177.9H94.9c-0.6,0-1.1-0.5-1.1-1.1c0-0.6,0.5-1.1,1.1-1.1h16.8c0.6,0,1.1,0.5,1.1,1.1
		C112.8,177.4,112.3,177.9,111.7,177.9z"/>
	<path id="Path_580" class="st3" d="M117.8,208.4h-10.6c-0.6,0-1.1-0.5-1.1-1.1c0-0.6,0.5-1.1,1.1-1.1h10.6c0.6,0,1.1,0.5,1.1,1.1
		C118.9,207.9,118.4,208.4,117.8,208.4z"/>
	<path id="Path_581" class="st3" d="M101.1,208.4h-6.2c-0.6,0-1.1-0.5-1.1-1.1c0-0.6,0.5-1.1,1.1-1.1h6.2c0.6,0,1.1,0.5,1.1,1.1
		C102.2,207.9,101.7,208.4,101.1,208.4L101.1,208.4z"/>
	<path id="Path_582" class="st3" d="M108.6,216H94.9c-0.6,0-1.1-0.5-1.1-1.1c0-0.6,0.5-1.1,1.1-1.1h13.7c0.6,0,1.1,0.5,1.1,1.1
		C109.8,215.5,109.3,216,108.6,216z"/>
	<path id="Path_583" class="st3" d="M78.1,200.8h-5.7c-0.6,0-1.1-0.5-1.1-1.1c0-0.6,0.5-1.1,1.1-1.1h5.7c0.6,0,1.1,0.5,1.1,1.1
		C79.2,200.3,78.7,200.8,78.1,200.8z"/>
	<path id="Path_584" class="st3" d="M66.3,200.8H55.2c-0.6,0-1.1-0.5-1.1-1.1c0-0.6,0.5-1.1,1.1-1.1h11.1c0.6,0,1.1,0.5,1.1,1.1
		C67.5,200.3,67,200.8,66.3,200.8L66.3,200.8z"/>
	<path id="Path_585" class="st3" d="M78.1,208.4H67.9c-0.6,0-1.1-0.5-1.1-1.1c0-0.6,0.5-1.1,1.1-1.1h10.2c0.6,0,1.1,0.5,1.1,1.1
		C79.2,207.9,78.7,208.4,78.1,208.4L78.1,208.4z"/>
	<path id="Path_586" class="st3" d="M61.7,208.4h-6.6c-0.6,0-1.1-0.5-1.1-1.1c0-0.6,0.5-1.1,1.1-1.1h6.6c0.6,0,1.1,0.5,1.1,1.1
		C62.9,207.9,62.4,208.4,61.7,208.4z"/>
	<path id="Path_587" class="st3" d="M70.5,216H55.2c-0.6,0-1.1-0.5-1.1-1.1c0-0.6,0.5-1.1,1.1-1.1h15.3c0.6,0,1.1,0.5,1.1,1.1
		C71.6,215.5,71.1,216,70.5,216L70.5,216z"/>
	<path id="Rectangle_337" class="st0" d="M56,169.1h21.3c0.4,0,0.8,0.4,0.8,0.8v21.3c0,0.4-0.4,0.8-0.8,0.8H56
		c-0.4,0-0.8-0.4-0.8-0.8v-21.3C55.2,169.4,55.5,169.1,56,169.1z"/>
	<path id="Rectangle_338" class="st1" d="M56,169.1h16l0,0v16.4c0,0.2-0.2,0.4-0.4,0.4H55.2l0,0v-16C55.2,169.4,55.5,169.1,56,169.1
		z"/>
	<path id="Path_588" class="st3" d="M76.6,193.1H56.7c-1.5,0-2.7-1.2-2.7-2.7v-19.8c0-1.5,1.2-2.7,2.7-2.7h19.8
		c1.5,0,2.7,1.2,2.7,2.7v19.8C79.2,191.9,78,193.1,76.6,193.1z M56.7,170.2c-0.2,0-0.4,0.2-0.4,0.4v19.8c0,0.2,0.2,0.4,0.4,0.4h19.8
		c0.2,0,0.4-0.2,0.4-0.4v-19.8c0-0.2-0.2-0.4-0.4-0.4L56.7,170.2z"/>
	<path id="Rectangle_339" class="st0" d="M95.7,184.4H117c0.4,0,0.8,0.4,0.8,0.8v13.7c0,0.4-0.4,0.8-0.8,0.8H95.7
		c-0.4,0-0.8-0.4-0.8-0.8v-13.7C94.9,184.7,95.2,184.4,95.7,184.4z"/>
	<path id="Rectangle_340" class="st1" d="M95.7,184.4h16l0,0v8.8c0,0.2-0.2,0.4-0.4,0.4H94.9l0,0v-8.4
		C94.9,184.7,95.2,184.4,95.7,184.4z"/>
	<path id="Path_589" class="st3" d="M116.3,200.8H96.4c-1.5,0-2.7-1.2-2.7-2.7v-12.2c0-1.5,1.2-2.7,2.7-2.7h19.8
		c1.5,0,2.7,1.2,2.7,2.7v12.2C118.9,199.6,117.7,200.8,116.3,200.8z M96.4,185.5c-0.2,0-0.4,0.2-0.4,0.4v12.2c0,0.2,0.2,0.4,0.4,0.4
		h19.8c0.2,0,0.4-0.2,0.4-0.4v-12.2c0-0.2-0.2-0.4-0.4-0.4L96.4,185.5z"/>
</g>
</svg>
