<?xml version="1.0" encoding="utf-8"?>
<!-- Generator: Adobe Illustrator 24.2.3, SVG Export Plug-In . SVG Version: 6.00 Build 0)  -->
<svg version="1.1" id="Layer_1" xmlns="http://www.w3.org/2000/svg" xmlns:xlink="http://www.w3.org/1999/xlink" x="0px" y="0px"
	 viewBox="0 0 100 100" style="enable-background:new 0 0 100 100;" xml:space="preserve">
<style type="text/css">
	.st0{fill:#E8E8E8;}
	.st1{fill:#FFFFFF;}
	.st2{fill:#282828;}
	.st3{fill:#009E4F;}
</style>
<g id="Group_476" transform="translate(-397.251 -157.251)">
	<path id="Rectangle_327" class="st0" d="M401.6,158.4h91.3c1.8,0,3.2,1.4,3.2,3.2v91.3c0,1.8-1.4,3.2-3.2,3.2h-91.3
		c-1.8,0-3.2-1.4-3.2-3.2v-91.3C398.4,159.8,399.8,158.4,401.6,158.4z"/>
	<path id="Rectangle_328" class="st1" d="M401.6,158.4h85.2c1.8,0,3.2,1.4,3.2,3.2v85.3c0,0.9-0.7,1.6-1.6,1.6h-86.8
		c-1.8,0-3.2-1.4-3.2-3.2v-83.7C398.4,159.8,399.8,158.4,401.6,158.4z"/>
	<path id="Path_535" class="st2" d="M490,257.3h-85.5c-4,0-7.2-3.2-7.3-7.3v-85.5c0-4,3.2-7.2,7.3-7.3H490c4,0,7.2,3.2,7.3,7.3V250
		C497.2,254,494,257.2,490,257.3z M404.5,159.5c-2.7,0-5,2.2-5,5V250c0,2.7,2.2,5,5,5H490c2.7,0,5-2.2,5-5v-85.5c0-2.7-2.2-5-5-5
		H404.5z"/>
	<path id="Path_536" class="st0" d="M447.3,233.2h-22.9l-15.3-15.3v-47.3c0-0.8,0.7-1.5,1.5-1.5c0,0,0,0,0,0h36.6L447.3,233.2z"/>
	<path id="Path_537" class="st1" d="M438.1,225.6h-21.4c-3-3-4.7-4.7-7.6-7.6v-47.3c0-0.8,0.7-1.5,1.5-1.5c0,0,0,0,0,0h29v55
		C439.6,224.9,438.9,225.6,438.1,225.6C438.1,225.6,438.1,225.6,438.1,225.6z"/>
	<path id="Path_538" class="st3" d="M447.3,234.3h-22.9c-0.3,0-0.6-0.1-0.8-0.3l-15.3-15.3c-0.2-0.2-0.3-0.5-0.3-0.8v-47.3
		c0-1.5,1.2-2.7,2.7-2.7h36.6c0.6,0,1.1,0.5,1.1,1.1v64.1C448.4,233.8,447.9,234.3,447.3,234.3z M424.8,232.1h21.3v-61.8h-35.5
		c-0.2,0-0.4,0.2-0.4,0.4v46.9L424.8,232.1z"/>
	<path id="Rectangle_329" class="st0" d="M447.3,169.1h37.4c0.4,0,0.8,0.4,0.8,0.8v62.5c0,0.4-0.4,0.8-0.8,0.8h-37.4l0,0V169.1
		L447.3,169.1z"/>
	<path id="Rectangle_330" class="st1" d="M447.3,169.1h30.5l0,0v55.7c0,0.4-0.4,0.8-0.8,0.8h-29.7l0,0V169.1L447.3,169.1z"/>
	<path id="Path_539" class="st3" d="M483.9,234.3h-36.6c-0.6,0-1.1-0.5-1.1-1.1v-64.1c0-0.6,0.5-1.1,1.1-1.1h36.6
		c1.5,0,2.7,1.2,2.7,2.7v61.1C486.6,233.2,485.4,234.3,483.9,234.3z M448.4,232.1h35.5c0.2,0,0.4-0.2,0.4-0.4v-61.1
		c0-0.2-0.2-0.4-0.4-0.4h-35.5V232.1z"/>
	<path id="Path_540" class="st0" d="M424.4,233.2v-15.3h-15.3L424.4,233.2z"/>
	<path id="Path_541" class="st1" d="M424.4,233.2v-15.3l-7.6,7.6L424.4,233.2z"/>
	<path id="Path_542" class="st3" d="M424.4,234.3c-0.3,0-0.6-0.1-0.8-0.3l-15.3-15.3c-0.4-0.4-0.4-1.2,0-1.6
		c0.2-0.2,0.5-0.3,0.8-0.3h15.3c0.6,0,1.1,0.5,1.1,1.1v15.3c0,0.5-0.3,0.9-0.7,1.1C424.7,234.3,424.5,234.3,424.4,234.3z
		 M411.8,219.1l11.4,11.4v-11.4H411.8z"/>
	<path id="Path_543" class="st3" d="M478.5,196.2h-24.4c-0.6,0-1.1-0.5-1.1-1.1s0.5-1.1,1.1-1.1h24.4c0.6,0,1.1,0.5,1.1,1.1
		S479.2,196.2,478.5,196.2z"/>
	<path id="Path_544" class="st3" d="M470.9,203.8h-16.8c-0.6,0-1.1-0.5-1.1-1.1c0-0.6,0.5-1.1,1.1-1.1h16.8c0.6,0,1.1,0.5,1.1,1.1
		C472.1,203.3,471.5,203.8,470.9,203.8z"/>
	<path id="Path_545" class="st3" d="M478.5,211.5h-10c-0.6,0-1.1-0.5-1.1-1.1c0-0.6,0.5-1.1,1.1-1.1h10c0.6,0,1.1,0.5,1.1,1.1
		C479.7,210.9,479.2,211.5,478.5,211.5L478.5,211.5z"/>
	<path id="Path_546" class="st3" d="M462.5,211.5h-8.4c-0.6,0-1.1-0.5-1.1-1.1c0-0.6,0.5-1.1,1.1-1.1h8.4c0.6,0,1.1,0.5,1.1,1.1
		C463.6,210.9,463.1,211.5,462.5,211.5L462.5,211.5L462.5,211.5z"/>
	<path id="Path_547" class="st3" d="M478.5,219.1h-24.4c-0.6,0-1.1-0.5-1.1-1.1c0-0.6,0.5-1.1,1.1-1.1h24.4c0.6,0,1.1,0.5,1.1,1.1
		C479.7,218.6,479.2,219.1,478.5,219.1z"/>
	<path id="Path_548" class="st3" d="M467.1,226.7h-12.9c-0.6,0-1.1-0.5-1.1-1.1c0-0.6,0.5-1.1,1.1-1.1h12.9c0.6,0,1.1,0.5,1.1,1.1
		C468.2,226.2,467.7,226.7,467.1,226.7L467.1,226.7z"/>
	<path id="Path_549" class="st3" d="M478.6,188.5H471c-0.6,0-1.1-0.5-1.1-1.1s0.5-1.1,1.1-1.1h7.5c0.6,0,1.1,0.5,1.1,1.1
		S479.2,188.5,478.6,188.5z"/>
	<path id="Path_550" class="st3" d="M464.9,188.5h-10.8c-0.6,0-1.1-0.5-1.1-1.1s0.5-1.1,1.1-1.1h10.8c0.6,0,1.1,0.5,1.1,1.1
		S465.5,188.5,464.9,188.5z"/>
	<path id="Path_551" class="st3" d="M478.5,180.9h-24.4c-0.6,0-1.1-0.5-1.1-1.1c0-0.6,0.5-1.1,1.1-1.1h24.4c0.6,0,1.1,0.5,1.1,1.1
		C479.7,180.4,479.2,180.9,478.5,180.9z"/>
	<path id="Path_552" class="st3" d="M432.7,196.2H416c-0.6,0-1.1-0.5-1.1-1.1s0.5-1.1,1.1-1.1h16.8c0.6,0,1.1,0.5,1.1,1.1
		S433.4,196.2,432.7,196.2L432.7,196.2z"/>
	<path id="Path_553" class="st3" d="M440.4,203.8h-11.5c-0.6,0-1.1-0.5-1.1-1.1c0-0.6,0.5-1.1,1.1-1.1h11.5c0.6,0,1.1,0.5,1.1,1.1
		C441.5,203.3,441,203.8,440.4,203.8z"/>
	<path id="Path_554" class="st3" d="M422.8,203.8H416c-0.6,0-1.1-0.5-1.1-1.1c0-0.6,0.5-1.1,1.1-1.1h6.9c0.6,0,1.1,0.5,1.1,1.1
		C424,203.3,423.5,203.8,422.8,203.8L422.8,203.8z"/>
	<path id="Path_555" class="st3" d="M440.4,211.5H416c-0.6,0-1.1-0.5-1.1-1.1c0-0.6,0.5-1.1,1.1-1.1h24.4c0.6,0,1.1,0.5,1.1,1.1
		C441.5,210.9,441,211.5,440.4,211.5L440.4,211.5z"/>
	<path id="Path_556" class="st3" d="M440.4,219.1h-9.9c-0.6,0-1.1-0.5-1.1-1.1c0-0.6,0.5-1.1,1.1-1.1h9.9c0.6,0,1.1,0.5,1.1,1.1
		C441.5,218.6,441,219.1,440.4,219.1L440.4,219.1L440.4,219.1z"/>
	<path id="Path_557" class="st3" d="M434.6,226.7h-4.2c-0.6,0-1.1-0.5-1.1-1.1c0-0.6,0.5-1.1,1.1-1.1h4.2c0.6,0,1.1,0.5,1.1,1.1
		C435.8,226.2,435.3,226.7,434.6,226.7L434.6,226.7z"/>
	<path id="Path_558" class="st3" d="M440.4,188.5H416c-0.6,0-1.1-0.5-1.1-1.1s0.5-1.1,1.1-1.1h24.4c0.6,0,1.1,0.5,1.1,1.1
		S441,188.5,440.4,188.5L440.4,188.5z"/>
	<path id="Path_559" class="st3" d="M440.4,180.9H432c-0.6,0-1.1-0.5-1.1-1.1c0-0.6,0.5-1.1,1.1-1.1h8.4c0.6,0,1.1,0.5,1.1,1.1
		C441.5,180.4,441,180.9,440.4,180.9L440.4,180.9z"/>
	<path id="Path_560" class="st3" d="M425.9,180.9H416c-0.6,0-1.1-0.5-1.1-1.1c0-0.6,0.5-1.1,1.1-1.1h9.9c0.6,0,1.1,0.5,1.1,1.1
		C427,180.4,426.5,180.9,425.9,180.9L425.9,180.9z"/>
	<path id="Path_561" class="st1" d="M454.1,248.5h-6.9v-7.6h6.9c1.5,1.5,2.3,2.3,3.8,3.8l0,0L454.1,248.5z"/>
	<path id="Path_562" class="st2" d="M454.1,249.6h-6.9c-0.6,0-1.1-0.5-1.1-1.1v-7.6c0-0.6,0.5-1.1,1.1-1.1h6.9
		c0.3,0,0.6,0.1,0.8,0.3l3.8,3.8c0.4,0.4,0.4,1.2,0,1.6l-3.8,3.8C454.7,249.5,454.4,249.6,454.1,249.6z M448.4,247.3h5.3l2.7-2.7
		l-2.7-2.7h-5.3V247.3z"/>
	<path id="Path_563" class="st1" d="M447.3,248.5h-6.9c-1.5-1.5-2.3-2.3-3.8-3.8l0,0l3.8-3.8h6.9L447.3,248.5z"/>
	<path id="Path_564" class="st2" d="M447.3,249.6h-6.9c-0.3,0-0.6-0.1-0.8-0.3l-3.8-3.8c-0.4-0.4-0.4-1.2,0-1.6c0,0,0,0,0,0l3.8-3.8
		c0.2-0.2,0.5-0.3,0.8-0.3h6.9c0.6,0,1.1,0.5,1.1,1.1v7.6C448.4,249.1,447.9,249.6,447.3,249.6z M440.9,247.3h5.3V242h-5.3l-2.7,2.7
		L440.9,247.3z"/>
	<circle id="Ellipse_14" class="st1" cx="467.9" cy="244.7" r="3.4"/>
	<path id="Path_565" class="st2" d="M467.9,249.2c-2.5,0-4.6-2.1-4.6-4.6c0-2.5,2.1-4.6,4.6-4.6s4.6,2.1,4.6,4.6
		C472.4,247.2,470.4,249.2,467.9,249.2z M467.9,242.4c-1.3,0-2.3,1-2.3,2.3s1,2.3,2.3,2.3c1.3,0,2.3-1,2.3-2.3c0,0,0,0,0,0
		C470.2,243.4,469.1,242.4,467.9,242.4z"/>
	<circle id="Ellipse_15" class="st1" cx="426.6" cy="244.7" r="3.4"/>
	<path id="Path_566" class="st2" d="M426.6,249.2c-2.5,0-4.6-2.1-4.6-4.6c0-2.5,2.1-4.6,4.6-4.6c2.5,0,4.6,2.1,4.6,4.6
		C431.2,247.2,429.2,249.2,426.6,249.2z M426.6,242.4c-1.3,0-2.3,1-2.3,2.3s1,2.3,2.3,2.3c1.3,0,2.3-1,2.3-2.3c0,0,0,0,0,0
		C428.9,243.4,427.9,242.4,426.6,242.4z"/>
</g>
</svg>
