<?xml version="1.0" encoding="utf-8"?>
<!-- Generator: Adobe Illustrator 24.2.3, SVG Export Plug-In . SVG Version: 6.00 Build 0)  -->
<svg version="1.1" id="Layer_1" xmlns="http://www.w3.org/2000/svg" xmlns:xlink="http://www.w3.org/1999/xlink" x="0px" y="0px"
	 viewBox="0 0 100 100" style="enable-background:new 0 0 100 100;" xml:space="preserve">
<style type="text/css">
	.st0{fill:#E8E8E8;}
	.st1{fill:#FFFFFF;}
	.st2{fill:#282828;}
	.st3{fill:#009E4F;}
</style>
<g id="Group_475" transform="translate(-157.252 -37.251)">
	<rect id="Rectangle_316" x="187.4" y="126.9" class="st0" width="39.7" height="9.2"/>
	<rect id="Rectangle_317" x="187.4" y="126.9" class="st1" width="32.1" height="9.2"/>
	<path id="Path_505" class="st2" d="M227.1,137.3h-39.7c-0.6,0-1.1-0.5-1.1-1.1v0v-9.2c0-0.6,0.5-1.1,1.1-1.1c0,0,0,0,0,0h39.7
		c0.6,0,1.1,0.5,1.1,1.1c0,0,0,0,0,0v9.2C228.2,136.7,227.7,137.3,227.1,137.3L227.1,137.3z M188.6,135H226v-6.9h-37.4L188.6,135z"
		/>
	<path id="Path_506" class="st2" d="M237.8,137.3h-61.1c-0.6,0-1.1-0.5-1.1-1.1c0-0.6,0.5-1.1,1.1-1.1h61.1c0.6,0,1.1,0.5,1.1,1.1
		C238.9,136.7,238.4,137.3,237.8,137.3C237.8,137.3,237.8,137.3,237.8,137.3L237.8,137.3z"/>
	<path id="Rectangle_318" class="st0" d="M158.4,117.8h97.7l0,0v6.8c0,1.3-1.1,2.4-2.4,2.4h-92.9c-1.3,0-2.4-1.1-2.4-2.4V117.8
		L158.4,117.8z"/>
	<path id="Rectangle_319" class="st1" d="M158.4,117.8h90.1l0,0v6.8c0,1.3-1.1,2.4-2.4,2.4h-85.3c-1.3,0-2.4-1.1-2.4-2.4V117.8
		L158.4,117.8z"/>
	<path id="Path_507" class="st2" d="M251.5,128.1H163c-3.2,0-5.7-2.6-5.7-5.7v-4.6c0-0.6,0.5-1.1,1.1-1.1c0,0,0,0,0,0h97.7
		c0.6,0,1.1,0.5,1.1,1.1c0,0,0,0,0,0v4.6C257.2,125.5,254.7,128.1,251.5,128.1z M159.5,118.9v3.4c0,1.9,1.5,3.4,3.4,3.4l0,0h88.5
		c1.9,0,3.4-1.5,3.4-3.4v-3.4H159.5z"/>
	<path id="Rectangle_320" class="st0" d="M160.8,59.8h92.9c1.3,0,2.4,1.1,2.4,2.4v55.6l0,0h-97.7l0,0V62.2
		C158.4,60.8,159.5,59.8,160.8,59.8z"/>
	<path id="Rectangle_321" class="st1" d="M160.8,59.8h87.7l0,0v43.5c0,0.4-0.4,0.8-0.8,0.8h-89.3l0,0V62.2
		C158.4,60.8,159.5,59.8,160.8,59.8z"/>
	<path id="Path_508" class="st2" d="M256.1,118.9h-97.7c-0.6,0-1.1-0.5-1.1-1.1l0,0V64.4c0-3.2,2.6-5.7,5.7-5.7h88.5
		c3.2,0,5.7,2.6,5.7,5.7v53.4C257.3,118.4,256.7,118.9,256.1,118.9z M159.5,116.6H255V64.4c0-1.9-1.5-3.4-3.4-3.4H163
		c-1.9,0-3.4,1.5-3.4,3.4l0,0L159.5,116.6z"/>
	<path id="Path_509" class="st2" d="M166,101.8c-0.6,0-1.1-0.5-1.1-1.1v0V81.1c0-0.6,0.5-1.1,1.1-1.1c0.6,0,1.1,0.5,1.1,1.1
		c0,0,0,0,0,0v19.5C167.2,101.3,166.7,101.8,166,101.8z"/>
	<path id="Path_510" class="st2" d="M166,111.3c-0.6,0-1.1-0.5-1.1-1.1c0,0,0,0,0,0v-3.4c0-0.6,0.5-1.1,1.1-1.1
		c0.6,0,1.1,0.5,1.1,1.1c0,0,0,0,0,0v3.4C167.2,110.8,166.7,111.3,166,111.3z"/>
	<path id="Path_511" class="st2" d="M248.5,85c-0.6,0-1.1-0.5-1.1-1.1v0V67.4c0-0.6,0.5-1.1,1.1-1.1c0.6,0,1.1,0.5,1.1,1.1
		c0,0,0,0,0,0v16.5C249.6,84.5,249.1,85,248.5,85z"/>
	<path id="Path_512" class="st2" d="M248.5,94.5c-0.6,0-1.1-0.5-1.1-1.1c0,0,0,0,0,0V90c0-0.6,0.5-1.1,1.1-1.1
		c0.6,0,1.1,0.5,1.1,1.1c0,0,0,0,0,0v3.4C249.6,94,249.1,94.5,248.5,94.5z"/>
	<rect id="Rectangle_322" x="173.7" y="50.6" class="st0" width="67.2" height="67.2"/>
	<path id="Rectangle_323" class="st1" d="M173.7,50.6h61.1l0,0v60.3c0,0.4-0.4,0.8-0.8,0.8h-60.3l0,0V50.6L173.7,50.6z"/>
	<path id="Path_513" class="st2" d="M240.8,118.9h-67.2c-0.6,0-1.1-0.5-1.1-1.1v0V50.6c0-0.6,0.5-1.1,1.1-1.1l0,0h67.2
		c0.6,0,1.1,0.5,1.1,1.1c0,0,0,0,0,0v67.2C242,118.4,241.5,118.9,240.8,118.9L240.8,118.9z M174.8,116.6h64.9V51.8h-64.9V116.6z"/>
	<path id="Rectangle_324" class="st0" d="M174.5,38.4H240c0.4,0,0.8,0.4,0.8,0.8v11.4l0,0h-67.2l0,0V39.2
		C173.7,38.8,174,38.4,174.5,38.4z"/>
	<path id="Rectangle_325" class="st1" d="M174.5,38.4h60.3l0,0v6.1l0,0h-61.1l0,0v-5.3C173.7,38.8,174,38.4,174.5,38.4z"/>
	<path id="Path_514" class="st2" d="M240.8,51.8h-67.2c-0.6,0-1.1-0.5-1.1-1.1c0,0,0,0,0,0V39.9c0-1.5,1.2-2.7,2.7-2.7h64.1
		c1.5,0,2.7,1.2,2.7,2.7v10.7C242,51.2,241.5,51.8,240.8,51.8z M174.8,49.5h64.9v-9.5c0-0.2-0.2-0.4-0.4-0.4h-64.1
		c-0.2,0-0.4,0.2-0.4,0.4V49.5z"/>
	<path id="Path_515" class="st2" d="M222.5,45.7c-0.6,0-1.2-0.5-1.1-1.2c0-0.3,0.1-0.6,0.3-0.8c0.5-0.4,1.2-0.4,1.6,0
		c0.2,0.2,0.3,0.5,0.4,0.8C223.7,45.1,223.2,45.7,222.5,45.7C222.5,45.7,222.5,45.7,222.5,45.7z"/>
	<path id="Path_516" class="st2" d="M227.5,44.5c0-0.6,0.5-1.1,1.1-1.1c0,0,0,0,0,0l0,0c0.6,0,1.2,0.5,1.2,1.1c0,0,0,0,0,0l0,0
		c0,0.6-0.5,1.1-1.2,1.1l0,0C228,45.7,227.5,45.1,227.5,44.5z"/>
	<path id="Path_517" class="st2" d="M234.7,45.7c-0.6,0-1.1-0.5-1.1-1.1c0-0.3,0.1-0.6,0.3-0.8c0.5-0.4,1.2-0.4,1.6,0
		c0.2,0.2,0.3,0.5,0.3,0.8c0,0.3-0.1,0.6-0.3,0.8C235.3,45.5,235,45.7,234.7,45.7z"/>
	<path id="Path_518" class="st0" d="M182.8,85.7h7.6l13.7,9.2l-1.5-9.2H221v-26h-38.2V85.7z"/>
	<rect id="Rectangle_326" x="182.8" y="59.8" class="st1" width="33.6" height="21.4"/>
	<path id="Path_519" class="st3" d="M204.2,96c-0.2,0-0.4-0.1-0.6-0.2l-13.5-9h-7.3c-0.6,0-1.1-0.5-1.1-1.1v0v-26
		c0-0.6,0.5-1.1,1.1-1.1l0,0H221c0.6,0,1.1,0.5,1.1,1.1c0,0,0,0,0,0v26c0,0.6-0.5,1.1-1.1,1.1l0,0h-17l1.3,7.8
		c0.1,0.6-0.3,1.2-0.9,1.3C204.3,96,204.3,96,204.2,96L204.2,96z M184,84.6h6.5c0.2,0,0.4,0.1,0.6,0.2l11.5,7.7l-1.1-6.6
		c-0.1-0.6,0.3-1.2,0.9-1.3c0.1,0,0.1,0,0.2,0h17.2V60.9H184V84.6z"/>
	<path id="Path_520" class="st3" d="M204.2,77.3h-13.7c-0.6,0-1.1-0.5-1.1-1.1c0-0.6,0.5-1.1,1.1-1.1c0,0,0,0,0,0h13.7
		c0.6,0,1.1,0.5,1.1,1.1C205.3,76.8,204.8,77.3,204.2,77.3z"/>
	<path id="Path_521" class="st3" d="M213.4,70.5h-9.9c-0.6,0-1.1-0.5-1.1-1.1s0.5-1.1,1.1-1.1c0,0,0,0,0,0h9.9
		c0.6,0,1.1,0.5,1.1,1.1C214.5,70,214,70.5,213.4,70.5C213.4,70.5,213.4,70.5,213.4,70.5z"/>
	<path id="Path_522" class="st3" d="M197.3,70.5h-6.9c-0.6,0-1.1-0.5-1.1-1.1s0.5-1.1,1.1-1.1c0,0,0,0,0,0h6.9
		c0.6,0,1.1,0.5,1.1,1.1C198.5,70,198,70.5,197.3,70.5z"/>
	<path id="Path_523" class="st1" d="M236.3,104.8l-7.1-1.9H221v14.9h19.8v-7.1C240.8,107.9,239,105.5,236.3,104.8z"/>
	<path id="Path_524" class="st0" d="M236.3,104.8l-7.1-1.9H221v3.1h3.6l9.2,2.4c1.4,0.4,2.4,1.6,2.4,3.1v6.3h4.6v-7.1
		C240.8,107.9,239,105.5,236.3,104.8z"/>
	<path id="Path_525" class="st3" d="M240.8,118.9H221c-0.6,0-1.1-0.5-1.1-1.1v0v-14.9c0-0.6,0.5-1.1,1.1-1.1l0,0h8.2
		c0.1,0,0.2,0,0.3,0l7.1,1.9l0,0c3.2,0.8,5.4,3.7,5.4,7v7.1C242,118.4,241.5,118.9,240.8,118.9C240.8,118.9,240.8,118.9,240.8,118.9
		z M222.1,116.6h17.6v-6c0-2.3-1.5-4.2-3.7-4.8l-6.9-1.8h-6.9L222.1,116.6z"/>
	<path id="Path_526" class="st1" d="M212.8,102.9l-7.1,1.9c-2.7,0.7-4.6,3.1-4.6,5.9v7.1H221v-14.9H212.8z"/>
	<path id="Path_527" class="st0" d="M212.8,102.9l-5.1,1.3c0.7,3.6,5.1,7,7.4,8.6c0.8,0.6,1.3,1.5,1.3,2.6v2.4h4.6v-14.9H212.8z"/>
	<path id="Path_528" class="st3" d="M221,118.9h-19.8c-0.6,0-1.1-0.5-1.1-1.1v0v-7.1c0-3.3,2.2-6.2,5.4-7l7.1-1.9c0.1,0,0.2,0,0.3,0
		h8.2c0.6,0,1.1,0.5,1.1,1.1v0v14.9C222.1,118.4,221.6,118.9,221,118.9L221,118.9z M202.3,116.6h17.6V104h-6.9l-6.9,1.8
		c-2.2,0.6-3.7,2.5-3.7,4.8L202.3,116.6z"/>
	<path id="Path_529" class="st1" d="M221,110.6c0,0,8.2-4.4,8.2-7.7c-1.8-0.9-3-2.5-3.4-4.4c-0.1-0.3-0.1-2.1-0.1-2.4l-9.4,0
		c0,0.3-0.1,2.2-0.2,2.5c-0.4,1.9-1.6,3.5-3.4,4.3C212.8,106.2,221,110.6,221,110.6z"/>
	<path id="Path_530" class="st0" d="M225.8,98.5c-0.1-0.3-0.1-2.1-0.1-2.4h-5.3c0,0.3,0.6,2,0.6,2.3c0.4,1.9,1.4,3.5,2.8,4.8
		c0.4,0.4,0.6,0.9,0.6,1.5c-0.3,2.6-2.9,5.1-3.7,5.8l0.3,0.2c0,0,8.2-4.4,8.2-7.7C227.5,102,226.2,100.4,225.8,98.5z"/>
	<path id="Path_531" class="st3" d="M221,111.8c-0.2,0-0.4,0-0.5-0.1c-1.5-0.8-8.7-4.9-8.8-8.7c0-0.4,0.2-0.9,0.6-1.1
		c1.4-0.7,2.4-2,2.7-3.5c0-0.2,0.1-0.9,0.1-1.4c0-0.5,0-0.9,0.1-1c0.1-0.6,0.6-1,1.1-1l9.4,0l0,0c0.6,0,1.1,0.4,1.1,1
		c0,0.1,0,0.5,0.1,1c0,0.5,0,1.1,0.1,1.3c0.3,1.6,1.4,2.9,2.8,3.6c0.4,0.2,0.6,0.6,0.6,1c-0.1,3.8-7.4,7.9-8.8,8.7
		C221.4,111.7,221.2,111.8,221,111.8z M214.1,103.5c0.8,1.7,4.2,4.3,6.9,5.8c2.7-1.5,6.2-4.1,6.9-5.8c-1.7-1.1-2.8-2.8-3.2-4.8
		c-0.1-0.5-0.1-1-0.1-1.4l-7.2,0c0,0.5,0,1.1-0.1,1.6C216.9,100.7,215.7,102.4,214.1,103.5L214.1,103.5z"/>
	<path id="Path_532" class="st1" d="M230.5,88c0-6.3-4.3-9.9-9.5-9.9c-5.3,0-9.5,3.6-9.5,9.9c0,6.3,4.3,11.5,9.5,11.5
		C226.3,99.5,230.5,94.3,230.5,88z"/>
	<path id="Path_533" class="st0" d="M223.3,78.3c0.8,1.6,1.2,3.3,1.1,5.1c0,6.3-4.3,11.5-9.5,11.5c-0.5,0-1.1-0.1-1.6-0.2
		c1.7,2.9,4.5,4.8,7.7,4.8c5.3,0,9.5-5.1,9.5-11.5C230.5,82.6,227.4,79.2,223.3,78.3z"/>
	<path id="Path_534" class="st3" d="M221,100.6c-5.9,0-10.7-5.6-10.7-12.6c0-6.5,4.4-11.1,10.7-11.1s10.7,4.6,10.7,11.1
		C231.7,95,226.9,100.6,221,100.6z M221,79.2c-5,0-8.4,3.5-8.4,8.8c0,5.7,3.8,10.3,8.4,10.3c4.6,0,8.4-4.6,8.4-10.3
		C229.4,82.8,226,79.2,221,79.2z"/>
</g>
</svg>
