<?xml version="1.0" encoding="utf-8"?>
<!-- Generator: Adobe Illustrator 24.2.3, SVG Export Plug-In . SVG Version: 6.00 Build 0)  -->
<svg version="1.1" id="_x31__x2C_5" xmlns="http://www.w3.org/2000/svg" xmlns:xlink="http://www.w3.org/1999/xlink" x="0px"
	 y="0px" viewBox="0 0 512 512" style="enable-background:new 0 0 512 512;" xml:space="preserve">
<style type="text/css">
	.st0{fill:#EFEFEF;}
	.st1{fill:#A4AFC1;}
	.st2{fill:#F3F3F1;}
	.st3{fill:#009E4F;}
	.st4{fill:#D5DBE1;}
	.st5{fill:#026F38;}
	.st6{fill:#101010;}
</style>
<g>
	<path class="st0" d="M114.6,52.7C216.2,52.7,286.1,0,335.1,0s151.9,28.2,151.9,253.5S348.5,512,294.6,512
		C42.3,512-65.5,52.7,114.6,52.7L114.6,52.7z"/>
</g>
<g>
	<path class="st1" d="M79.2,40.2L100,19.4l10.4,10.4L89.6,50.6L79.2,40.2z"/>
</g>
<g>
	<path class="st1" d="M19.4,100l20.8-20.8l10.4,10.4l-20.8,20.8L19.4,100z"/>
</g>
<g>
	<path class="st1" d="M22.1,29.8l10.4-10.4l20.8,20.8L42.8,50.6L22.1,29.8z"/>
</g>
<g>
	<path class="st2" d="M392,406.7H120.1c-16.2,0-29.4-13.2-29.4-29.4V156.8h330.7v220.5C421.4,393.5,408.2,406.7,392,406.7z"/>
</g>
<g>
	<path class="st3" d="M421.4,156.8H90.7v-22c0-16.2,13.2-29.4,29.4-29.4H392c16.2,0,29.4,13.2,29.4,29.4V156.8z"/>
</g>
<g>
	<path class="st4" d="M127.4,377.3V156.8H90.7v220.5c0,16.2,13.2,29.4,29.4,29.4h36.7C140.6,406.7,127.4,393.5,127.4,377.3z"/>
</g>
<g>
	<path class="st5" d="M153.1,105.3h-33.1c-16.2,0-29.4,13.2-29.4,29.4v22h33.1v-22C123.7,118.5,136.9,105.3,153.1,105.3z"/>
</g>
<g>
	<path class="st3" d="M319.1,373.6H192.9c-13.8,0-25.1-11.3-25.1-25.1v-48.4h22v48.4c0,1.7,1.4,3,3,3h126.2c1.7,0,3-1.4,3-3v-48.4
		h22v48.4C344.2,362.3,333,373.6,319.1,373.6z"/>
</g>
<g>
	<path class="st3" d="M245,197.2h22v106.6h-22V197.2z"/>
</g>
<g>
	<path class="st3" d="M256,314.8c-2.6,0-5.2-0.9-7.3-2.8l-41.3-36.7l14.6-16.5l34,30.2l34-30.2l14.6,16.5L263.3,312
		C261.3,313.9,258.6,314.8,256,314.8L256,314.8z"/>
</g>
<g>
	<path class="st6" d="M392,417.7H120.1c-22.3,0-40.4-18.1-40.4-40.4V134.7c0-22.3,18.1-40.4,40.4-40.4H392
		c22.3,0,40.4,18.1,40.4,40.4v242.5C432.4,399.6,414.3,417.7,392,417.7z M120.1,116.4c-10.1,0-18.4,8.2-18.4,18.4v242.5
		c0,10.1,8.2,18.4,18.4,18.4H392c10.1,0,18.4-8.2,18.4-18.4V134.7c0-10.1-8.2-18.4-18.4-18.4H120.1z"/>
</g>
<g>
	<path class="st6" d="M90.7,145.8h330.7v22H90.7V145.8z"/>
</g>
<g>
	<path class="st6" d="M20.8,395.6h470.4v22H20.8V395.6z"/>
</g>
</svg>
