<?xml version="1.0" encoding="utf-8"?>
<!-- Generator: Adobe Illustrator 22.0.1, SVG Export Plug-In . SVG Version: 6.00 Build 0)  -->
<svg version="1.1" id="Layer_1" xmlns="http://www.w3.org/2000/svg" xmlns:xlink="http://www.w3.org/1999/xlink" x="0px" y="0px"
	 viewBox="0 0 46 32.8" style="enable-background:new 0 0 46 32.8;" xml:space="preserve">
<style type="text/css">
	.st0{opacity:0.3;fill:#333333;enable-background:new    ;}
	.st1{fill:#009E4F;}
</style>
<path class="st0" d="M3.5,1.9l38.6-0.1c1.8,0,3.2,1.4,3.2,3.2v19.6c0,1.8-1.4,3.2-3.2,3.2c0,0-5.8,0-8.5,0c-1.1,0-4.2,5-6.4,5
	c-2.6,0-0.4-5-2.1-5c-11.6,0-21.5,0.1-21.5,0.1c-1.8,0-3.2-1.5-3.2-3.2V5.1C0.3,3.3,1.7,1.9,3.5,1.9z"/>
<path class="st1" d="M3.8,0.5l38.6-0.1c1.8,0,3.2,1.4,3.2,3.2v20.1c0,1.8-1.4,3.2-3.2,3.2c0,0-5.8,0-8.5,0c-1.1,0-4.2,5-6.4,5
	c-2.6,0-0.4-5-2.1-5C13.8,26.9,3.9,27,3.9,27c-1.8,0-3.2-1.5-3.2-3.2V3.7C0.6,1.9,2,0.5,3.8,0.5z"/>
</svg>
