<svg xmlns="http://www.w3.org/2000/svg" width="68.068" height="46.869" viewBox="0 0 68.068 46.869"><defs><style>.a{fill:#009e4f;}</style></defs><path class="a" d="M65.139,54.942c0,8.752-1.556,14.975-4.667,18.864-4.084,5.251-10.5,9.141-19.253,11.863L34.8,78.863c5.251-1.556,9.141-3.7,11.669-6.612s3.89-7.2,4.279-12.836H37.134V38.8h27.81V54.942Zm37.729,0c0,8.752-1.556,14.975-4.667,18.864-4.084,5.251-10.5,9.141-19.253,11.863l-6.418-6.807c5.251-1.556,9.141-3.7,11.669-6.612s3.89-7.2,4.279-12.836H74.863V38.8h27.811V54.942Z" transform="translate(102.868 85.669) rotate(180)"/></svg>