<?xml version="1.0" encoding="utf-8"?>
<!-- Generator: Adobe Illustrator 24.2.3, SVG Export Plug-In . SVG Version: 6.00 Build 0)  -->
<svg version="1.1" id="Layer_1" xmlns="http://www.w3.org/2000/svg" xmlns:xlink="http://www.w3.org/1999/xlink" x="0px" y="0px"
	 viewBox="0 0 292 122.7" style="enable-background:new 0 0 292 122.7;" xml:space="preserve">
<style type="text/css">
	.st0{fill:#F2F2F2;}
	.st1{fill:none;stroke:#009E4F;}
	.st2{fill:#ECECEC;}
	.st3{clip-path:url(#SVGID_2_);}
	.st4{fill:#FFFFFF;}
	.st5{fill:#C4C4C4;}
</style>
<g id="no-videos" transform="translate(-21.276 -93.5)">
	<path id="Path" class="st0" d="M206.9,202.9H83.6c-5.2,0-9.5-4.2-9.5-9.5c0-5.2,4.2-9.5,9.5-9.5H30.8c-5.2,0-9.5-4.2-9.5-9.5
		c0-5.2,4.2-9.5,9.5-9.5H85c5.2,0,9.5-4.2,9.5-9.5S90.2,146,85,146l0,0H51.1c-5.2,0-9.5-4.2-9.5-9.5s4.2-9.5,9.5-9.5h54.2
		c-5.2,0-9.5-4.2-9.5-9.5c0-5.2,4.2-9.5,9.5-9.5h77.2c5.2,0,9.5,4.2,9.5,9.5c0,5.2-4.2,9.5-9.5,9.5l0,0h86.7c5.2,0,9.5,4.2,9.5,9.5
		s-4.2,9.5-9.5,9.5l0,0H299c5.2,0,9.5,4.2,9.5,9.5s-4.2,9.5-9.5,9.5h-25.7c-5.2,0-9.5,4.2-9.5,9.5c0,5.2,4.2,9.5,9.5,9.5h8.1
		c5.2,0,9.5,4.2,9.5,9.5c0,5.2-4.2,9.5-9.5,9.5h-70.4c-0.7,0-1.4-0.1-2-0.2C208.2,202.8,207.6,202.9,206.9,202.9z"/>
	<path id="Rectangle_35-2" class="st1" d="M98.4,94H238c7.2,0,13,5.8,13,13v95.7c0,7.2-5.8,13-13,13H98.4c-7.2,0-13-5.8-13-13V107
		C85.4,99.8,91.3,94,98.4,94z"/>
	<ellipse id="Oval" class="st0" cx="304.3" cy="193.5" rx="9" ry="10"/>
	<g id="video" transform="translate(87.877 96.434)">
		<path id="Rectangle_35-3" class="st2" d="M13,0h134.6c7.2,0,13,5.8,13,13v90.8c0,7.2-5.8,13-13,13H13c-7.2,0-13-5.8-13-13V13
			C0,5.8,5.8,0,13,0z"/>
		<g>
			<defs>
				<path id="SVGID_1_" d="M13,0h134.6c7.2,0,13,5.8,13,13v90.8c0,7.2-5.8,13-13,13H13c-7.2,0-13-5.8-13-13V13C0,5.8,5.8,0,13,0z"/>
			</defs>
			<clipPath id="SVGID_2_">
				<use xlink:href="#SVGID_1_"  style="overflow:visible;"/>
			</clipPath>
			<g id="video-2" class="st3">
				<rect id="Rectangle" x="27.7" y="8.5" class="st4" width="11.3" height="11.3"/>
				<rect id="Rectangle_Copy_6" x="27.7" y="96.6" class="st4" width="11.3" height="11.3"/>
				<path id="Rectangle_Copy_13" class="st4" d="M15.9,8.5h4.3l0,0v11.3l0,0H8.9l0,0v-4.3C8.9,11.6,12.1,8.5,15.9,8.5z"/>
				<path id="Rectangle_Copy_12" class="st4" d="M8.9,96.6h11.3l0,0v11.3l0,0h-4.3c-3.9,0-7-3.1-7-7V96.6L8.9,96.6z"/>
				<rect id="Rectangle_Copy_2" x="65.4" y="8.5" class="st4" width="11.3" height="11.3"/>
				<rect id="Rectangle_Copy_7" x="65.4" y="96.6" class="st4" width="11.3" height="11.3"/>
				<rect id="Rectangle_Copy_4" x="103.1" y="8.5" class="st4" width="11.3" height="11.3"/>
				<rect id="Rectangle_Copy_8" x="103.1" y="96.6" class="st4" width="11.3" height="11.3"/>
				<rect id="Rectangle_Copy" x="46.6" y="8.5" class="st4" width="11.3" height="11.3"/>
				<rect id="Rectangle_Copy_9" x="46.6" y="96.6" class="st4" width="11.3" height="11.3"/>
				<rect id="Rectangle_Copy_3" x="84.2" y="8.5" class="st4" width="11.3" height="11.3"/>
				<rect id="Rectangle_Copy_10" x="84.2" y="96.6" class="st4" width="11.3" height="11.3"/>
				<rect id="Rectangle_Copy_5" x="121.9" y="8.5" class="st4" width="11.3" height="11.3"/>
				<rect id="Rectangle_Copy_11" x="121.9" y="96.6" class="st4" width="11.3" height="11.3"/>
				<path id="Rectangle_Copy_15" class="st4" d="M140.7,8.5h4.3c3.9,0,7,3.1,7,7l0,0v4.3l0,0h-11.3l0,0V8.5L140.7,8.5z"/>
				<path id="Rectangle_Copy_14" class="st4" d="M140.7,96.6H152l0,0v4.3c0,3.9-3.1,7-7,7h-4.3l0,0V96.6L140.7,96.6z"/>
				<rect id="Rectangle_35_Copy" x="8.9" y="25" class="st4" width="143.1" height="66.3"/>
				<g id="Group_2" transform="translate(55.614 33.314)">
					<circle id="Oval-2" class="st0" cx="24.9" cy="24.9" r="24.9"/>
					<path id="Triangle_3" class="st5" d="M31.7,21.7c1.7,1,2.3,3.3,1.3,5c-0.3,0.5-0.7,0.9-1.3,1.3l-8.1,4.8c-1.7,1-4,0.5-5-1.3
						c-0.3-0.6-0.5-1.2-0.5-1.9V20c0-2,1.6-3.7,3.7-3.7c0.7,0,1.3,0.2,1.9,0.5L31.7,21.7z"/>
				</g>
			</g>
		</g>
	</g>
</g>
</svg>
