<svg xmlns="http://www.w3.org/2000/svg" width="161.335" height="141.12" viewBox="0 0 161.335 141.12"><defs><style>.a{fill:#282828;}.b{fill:#c9c9c9;}.c{fill:#fff;}.d{fill:#009e4f;}.e{fill:#d3a59f;}</style></defs><g transform="translate(-4.9 -22)"><g transform="translate(4.9 22)"><g transform="translate(90.426 10.266)"><g transform="translate(53.863 62.037)"><path class="a" d="M233.741,155.11H232.6V153.97h1.141Zm0-2.661H232.6v-1.457h1.141Zm0-2.978H232.6v-1.457h1.141Zm0-2.978H232.6v-1.457h1.141Zm0-2.978H232.6v-1.457h1.141Zm0-2.978H232.6v-1.457h1.141Zm0-2.978H232.6V136.1h1.141Z" transform="translate(-232.6 -136.1)"/></g><g transform="translate(60.453 62.037)"><path class="b" d="M244.141,155.11H243V153.97h1.141Zm0-2.661H243v-1.457h1.141Zm0-2.978H243v-1.457h1.141Zm0-2.978H243v-1.457h1.141Zm0-2.978H243v-1.457h1.141Zm0-2.978H243v-1.457h1.141Zm0-2.978H243V136.1h1.141Z" transform="translate(-243 -136.1)"/></g><g transform="translate(10.582)"><path class="b" d="M197.885,48.022H164.3l.634-1.077a16.78,16.78,0,0,1,14.7-8.745h2.915a16.722,16.722,0,0,1,14.891,9ZM166.2,46.945h29.783A15.545,15.545,0,0,0,182.55,39.4h-2.915A15.277,15.277,0,0,0,166.2,46.945Z" transform="translate(-164.3 -38.2)"/></g><g transform="translate(59.693 48.16)"><rect class="b" width="9.632" height="1.141"/></g><g transform="translate(10.456 13.561)"><path class="b" d="M198.445,85.708H197.3V60.741H165.177v5.323H164.1V59.6h34.345Z" transform="translate(-164.1 -59.6)"/></g><g transform="translate(66.346 56.461)"><rect class="b" width="1.141" height="29.339"/></g><g transform="translate(0 22.749)"><path class="b" d="M172.313,107.051h-1.141V75.241H147.6V74.1h24.713Z" transform="translate(-147.6 -74.1)"/></g><g transform="translate(37.514 42.076)"><path class="b" d="M239.5,116.767H206.8l6.083-12.167h21.482Zm-30.924-1.141H237.85l-4.246-9.949H213.58Z" transform="translate(-206.8 -104.6)"/></g></g><g transform="translate(16.729 42.9)"><path class="b" d="M57.408,113.336a12.27,12.27,0,0,0-7.161-5.006l-.634-.127.253-.634a11.705,11.705,0,0,0,.951-4.689,12.035,12.035,0,0,0-12.04-12.04,12.6,12.6,0,0,0-6.844,2.091l-.634-.951A13.61,13.61,0,0,1,38.714,89.7a13.211,13.211,0,0,1,13.181,13.181,11.5,11.5,0,0,1-.824,4.436,13,13,0,0,1,7.224,5.323Z" transform="translate(-31.3 -89.7)"/></g><g transform="translate(10.963 45.308)"><path class="b" d="M22.58,107.5a13.723,13.723,0,0,1-.253-1.584l1.077-.127a10.746,10.746,0,0,0,.253,1.394ZM22.2,104.4h0a11.712,11.712,0,0,1,.063-1.521l1.077.127a9.359,9.359,0,0,0-.063,1.331v.063Zm1.457-2.852-1.077-.253a12.772,12.772,0,0,1,.444-1.457l1.077.38A3,3,0,0,0,23.657,101.548Zm.951-2.661-1.014-.444a4.222,4.222,0,0,1,.824-1.331l.951.634A5.107,5.107,0,0,0,24.608,98.886Zm1.584-2.345-.951-.76c.317-.38.7-.76,1.077-1.141l.76.824C26.826,95.781,26.509,96.161,26.192,96.542Zm2.091-1.964-.7-.887a1.385,1.385,0,0,1,.317-.19l.634.951C28.41,94.451,28.41,94.514,28.283,94.577Z" transform="translate(-22.2 -93.5)"/></g><g transform="translate(0 58.615)"><path class="b" d="M20.805,145.74A15.88,15.88,0,0,1,16.75,114.5L17,115.577a14.8,14.8,0,0,0,3.865,29.086,15.219,15.219,0,0,0,4.753-.76l.317,1.077A18.661,18.661,0,0,1,20.805,145.74Z" transform="translate(-4.9 -114.5)"/></g><g transform="translate(8.998 58.017)"><path class="b" d="M19.544,116.182l-.444-1.014a16,16,0,0,1,6.907-1.584,8.688,8.688,0,0,1,4.753.76l-.317,1.077a11.314,11.314,0,0,0-4.372-.7A15.142,15.142,0,0,0,19.544,116.182Z" transform="translate(-19.1 -113.556)"/></g><g transform="translate(23.003 62.861)"><rect class="a" width="1.141" height="14.448"/></g><g transform="translate(26.868 63.178)"><path class="b" d="M48.187,128.164l-.887-.76.951-1.141.887.76Zm1.9-2.281-.887-.76.951-1.141.887.76Zm1.964-2.281-.887-.76.951-1.141.887.76Z" transform="translate(-47.3 -121.7)"/></g><g transform="translate(22.895 68.874)"><rect class="a" width="6.147" height="1.141" transform="translate(0 4.719) rotate(-50.156)"/></g><g transform="translate(32.761)"><g transform="translate(46.005)"><path class="b" d="M135.473,34.547a6.273,6.273,0,0,1,0-12.547,6.136,6.136,0,0,1,5.26,2.915l-.824.57a5.255,5.255,0,0,0-4.5-2.471,5.323,5.323,0,1,0,0,10.646,5.236,5.236,0,0,0,4.5-2.535l.824.57A6.048,6.048,0,0,1,135.473,34.547Z" transform="translate(-129.2 -22)"/></g><g transform="translate(54.18 5.83)"><rect class="b" width="14.385" height="1.014"/></g><g transform="translate(0 36.31)"><rect class="b" width="11.913" height="1.141" transform="translate(0 0)"/></g></g><g transform="translate(0.824 1.711)"><path class="b" d="M7.214,57.841,6.2,57.461a12.9,12.9,0,0,1,.57-1.394l1.014.38C7.531,56.954,7.4,57.461,7.214,57.841ZM8.355,55.18,7.341,54.8a8.588,8.588,0,0,1,.634-1.331l1.014.444A2.667,2.667,0,0,0,8.355,55.18ZM9.5,52.455l-1.014-.444a6.716,6.716,0,0,1,.7-1.331l1.014.444A8.809,8.809,0,0,0,9.5,52.455Zm1.267-2.725-1.014-.444a13.408,13.408,0,0,1,.7-1.331l1.014.57C11.269,48.907,10.953,49.35,10.762,49.73ZM12.283,47.2l-1.014-.57a13.406,13.406,0,0,1,.76-1.267l.951.57A3.574,3.574,0,0,0,12.283,47.2Zm1.394-2.6-.951-.634c.253-.38.57-.887.824-1.267l.951.634C14.248,43.774,13.931,44.217,13.677,44.6Zm1.584-2.471-.951-.634c.253-.38.57-.824.824-1.2l.951.634A8.07,8.07,0,0,0,15.262,42.126Zm1.648-2.471-.887-.634c.253-.38.634-.824.887-1.2l.887.7C17.543,38.894,17.163,39.275,16.909,39.655Zm1.774-2.345-.887-.7c.317-.38.634-.824.951-1.141l.887.7A8.25,8.25,0,0,0,18.683,37.31Zm1.9-2.281-.887-.76c.317-.38.7-.76.951-1.141l.887.76A5.352,5.352,0,0,0,20.585,35.029Zm1.9-2.218-.824-.76c.317-.38.7-.76,1.014-1.077l.824.76A5.506,5.506,0,0,0,22.486,32.811Zm2.028-2.218-.824-.824c.317-.317.7-.76,1.077-1.077l.824.824A8.633,8.633,0,0,0,24.513,30.593ZM26.6,28.5l-.76-.824c.317-.317.76-.7,1.077-1.014l.76.824C27.3,27.868,26.985,28.185,26.6,28.5Zm2.218-2.028-.76-.76c.38-.317.76-.7,1.141-1.014l.76.887A7.843,7.843,0,0,0,28.822,26.474Z" transform="translate(-6.2 -24.7)"/></g><g transform="translate(135.924 95.432)"><rect class="b" width="25.411" height="1.141"/></g><g transform="translate(9.505 107.092)"><path class="a" d="M20.724,198.161l-.824-.824A21.413,21.413,0,0,1,35.235,191h.444v1.141h-.444A20.588,20.588,0,0,0,20.724,198.161Z" transform="translate(-19.9 -191)"/></g><g transform="translate(10.944 71.76)"><rect class="a" width="1.141" height="11.786" transform="translate(0 0.875) rotate(-50.087)"/></g><g transform="translate(22.812 88.208)"><rect class="a" width="1.141" height="19.454"/></g><g transform="translate(140.043 101.262)"><path class="a" d="M242.692,196.375h-1.014V192.7h-5.386V187.63h-5.576v-4.689H225.9V181.8h5.957v4.689h5.513v5.133h5.323Z" transform="translate(-225.9 -181.8)"/></g></g><g transform="translate(27.206 70.667)"><g transform="translate(0.634 41.823)"><path class="c" d="M73.291,172.087a5.6,5.6,0,0,1-3.485-5.2V164.8h-.253c-1.711,1.648-2.535,2.535-4.816,2.535-2.218,0-3.105-.951-4.816-2.535h-.253v2.091a5.534,5.534,0,0,1-3.485,5.2c-2.091.824-13.434,11.216-15.082,12.483,5.513,11.977,22.306,24.523,32.064,26.551,6.147-3.992,11.343-18.313,14.638-24.967A25.378,25.378,0,0,0,73.291,172.087Z" transform="translate(-41.1 -164.8)"/></g><path class="c" d="M88.1,125.467a3.411,3.411,0,0,0-1.9-3.105,3.579,3.579,0,0,0,1.331-2.788,3.672,3.672,0,0,0-3.485-3.612.475.475,0,0,0-.317.063,3.6,3.6,0,0,0,.887-2.345,3.672,3.672,0,0,0-3.485-3.612,2.917,2.917,0,0,0-1.711.57,3.526,3.526,0,0,0-2.915-5.45,3.148,3.148,0,0,0-2.281.951v-.063a3.672,3.672,0,0,0-3.485-3.612,3.575,3.575,0,0,0-2.978,1.774v-.127a3.672,3.672,0,0,0-3.485-3.612H63.9a3.628,3.628,0,0,0-3.485,3.612v.127a3.575,3.575,0,0,0-2.978-1.774,3.628,3.628,0,0,0-3.485,3.612v.063a3.706,3.706,0,0,0-2.281-.951A3.628,3.628,0,0,0,48.18,108.8a3.019,3.019,0,0,0,.57,1.838,7.756,7.756,0,0,0-1.711-.57,3.628,3.628,0,0,0-3.485,3.612,3.364,3.364,0,0,0,.887,2.345h.507a3.5,3.5,0,0,0-2.978,3.549,3.79,3.79,0,0,0,1.331,2.788,3.482,3.482,0,0,0-1.9,3.105,3.529,3.529,0,0,0,3.232,3.549,3.693,3.693,0,0,0-1.648,2.978,3.648,3.648,0,0,0,3.3,3.612,3.087,3.087,0,0,0-.38,1.584,3.661,3.661,0,0,0,3.042,3.549,3.7,3.7,0,0,0,3.232,2.471,3.833,3.833,0,0,0,2.535-1.077s1.774,1.711,3.929-.317h12.04a2.83,2.83,0,0,0,3.929.317,3.876,3.876,0,0,0,2.535,1.077,3.344,3.344,0,0,0,3.232-2.471,3.554,3.554,0,0,0,3.042-3.549,3.435,3.435,0,0,0-.38-1.584,3.585,3.585,0,0,0,1.648-6.59A3.6,3.6,0,0,0,88.1,125.467Z" transform="translate(-40.576 -99.423)"/><g transform="translate(27.058 25.07)"><path class="d" d="M83.941,140.794,82.8,139.463c1.964-1.711,4.182-1.014,5.513-.634a4.286,4.286,0,0,0,.951.253v1.774a5.424,5.424,0,0,1-1.521-.317C86.6,140.16,85.271,139.717,83.941,140.794Z" transform="translate(-82.8 -138.362)"/><g transform="translate(1.901 1.101)"><path class="d" d="M88.461,141.431a1.331,1.331,0,1,1-2.661,0,1.3,1.3,0,0,1,1.331-1.331A1.382,1.382,0,0,1,88.461,141.431Z" transform="translate(-85.8 -140.1)"/></g></g><g transform="translate(15.462 25.03)"><path class="d" d="M69.886,140.771c-1.267-1.077-2.661-.634-3.865-.317a7.244,7.244,0,0,1-1.521.317V139a4.285,4.285,0,0,0,.951-.253c1.267-.38,3.549-1.014,5.513.634Z" transform="translate(-64.5 -138.3)"/><g transform="translate(2.091 1.141)"><circle class="d" cx="1.331" cy="1.331" r="1.331"/></g></g><g transform="translate(21.989 31.811)"><path class="d" d="M78.475,151.218a1.8,1.8,0,0,0-1.2-.57,1.561,1.561,0,0,0-1.2.57l-1.267-1.2A3.391,3.391,0,0,1,77.335,149a3.768,3.768,0,0,1,2.535,1.014Z" transform="translate(-74.8 -149)"/></g><g transform="translate(22.369 38.718)"><path class="d" d="M77.555,161.991a3.129,3.129,0,0,1-2.155-.824l1.2-1.267a1.34,1.34,0,0,0,1.964,0l1.141,1.331A3.7,3.7,0,0,1,77.555,161.991Z" transform="translate(-75.4 -159.9)"/></g><g transform="translate(20.341 35.886)"><path class="d" d="M72.9,158.263a2.6,2.6,0,0,1-.7-.063l.444-1.774c.824.19,1.774-.7,1.774-.7a.863.863,0,0,1,1.077-.19l.887.57.951-.57a.863.863,0,0,1,1.077.19s.824.951,1.711.7l.57,1.711a3.354,3.354,0,0,1-2.978-.7l-.76.38a.94.94,0,0,1-.824,0l-.76-.38A6.678,6.678,0,0,1,72.9,158.263Z" transform="translate(-72.2 -155.431)"/></g><g transform="translate(0.127 43.787)"><path class="d" d="M41.567,186.277l-1.267-1.2a71.416,71.416,0,0,1,8.3-7.731h0a36.562,36.562,0,0,1,5.386-3.105,17.588,17.588,0,0,0,3.992-2.471,4,4,0,0,0,1.077-3.485l1.774-.38a5.89,5.89,0,0,1-1.584,5.133,22.432,22.432,0,0,1-4.436,2.852,32.074,32.074,0,0,0-5.069,2.978A60.326,60.326,0,0,0,41.567,186.277Z" transform="translate(-40.3 -167.9)"/></g><g transform="translate(28.863 42.647)"><path class="d" d="M103.044,188.342c-2.471-7.731-7.541-10.709-11.533-13.117a18.585,18.585,0,0,1-4.182-2.915c-2.155-2.218-1.648-6.02-1.584-6.21l1.774.253-.887-.127.887.127s-.444,3.042,1.077,4.689a20.51,20.51,0,0,0,3.8,2.661c4.119,2.471,9.7,5.7,12.42,14.068Z" transform="translate(-85.648 -166.1)"/></g><g transform="translate(13.751 50.631)"><path class="d" d="M72.826,192.831a.9.9,0,0,1-.38-.127A21.435,21.435,0,0,1,61.8,179.017l1.774-.317a20.341,20.341,0,0,0,9.252,12.293c1.648-.951,7.668-4.943,9.378-11.406l1.774.444c-2.155,8.3-10.329,12.547-10.646,12.737A1.783,1.783,0,0,1,72.826,192.831Z" transform="translate(-61.8 -178.7)"/></g><g transform="translate(1.394)"><path class="d" d="M77.533,143.348h0A4.479,4.479,0,0,1,75,142.524a3.66,3.66,0,0,1-4.436-.76l1.2-1.267a2.035,2.035,0,0,0,2.725.317.88.88,0,0,1,1.2,0,2.722,2.722,0,0,0,1.838.824A2.839,2.839,0,0,0,80,139.862a.807.807,0,0,1,.7-.57,2.721,2.721,0,0,0,2.345-2.661,2.485,2.485,0,0,0-.253-1.141.924.924,0,0,1,.76-1.267,2.712,2.712,0,0,0,2.535-2.725,2.577,2.577,0,0,0-1.2-2.218.9.9,0,0,1-.38-.951.753.753,0,0,1,.76-.634,2.7,2.7,0,0,0,2.471-2.725,2.626,2.626,0,0,0-1.521-2.345.779.779,0,0,1-.444-.7.791.791,0,0,1,.317-.76,2.705,2.705,0,0,0-1.648-4.816h-.253a.851.851,0,0,1-.887-.444.872.872,0,0,1,.127-1.014,2.856,2.856,0,0,0,.7-1.774,2.691,2.691,0,0,0-2.661-2.725,2.086,2.086,0,0,0-1.2.38.972.972,0,0,1-1.077-.127.959.959,0,0,1-.127-1.077,2.73,2.73,0,0,0-2.281-4.119,2.856,2.856,0,0,0-1.774.7.768.768,0,0,1-.951.127.9.9,0,0,1-.57-.824v-.127A2.607,2.607,0,0,0,68.6,104a.823.823,0,0,1-1.014.38.9.9,0,0,1-.634-.887v-.127a2.677,2.677,0,0,0-2.661-2.661h-.38a2.812,2.812,0,0,0-2.661,2.661v.127a.953.953,0,0,1-.634.887A.9.9,0,0,1,59.6,104a2.614,2.614,0,0,0-2.218-1.331,2.812,2.812,0,0,0-2.661,2.661v.127a.818.818,0,0,1-.57.824,1.011,1.011,0,0,1-.951-.127,2.723,2.723,0,0,0-1.774-.7,2.823,2.823,0,0,0-2.661,2.725,2.555,2.555,0,0,0,.38,1.394.872.872,0,0,1-.127,1.077.783.783,0,0,1-1.077.127,2.239,2.239,0,0,0-1.2-.38,2.777,2.777,0,0,0-2.661,2.725,2.723,2.723,0,0,0,.7,1.774l-1.331,1.141a4.579,4.579,0,0,1-1.141-2.978,4.449,4.449,0,0,1,4.372-4.5h.317v-.57a4.532,4.532,0,0,1,4.372-4.5h.063a4.415,4.415,0,0,1,1.711.38,4.439,4.439,0,0,1,4.119-3.042h.063a4.733,4.733,0,0,1,2.471.76A4.444,4.444,0,0,1,63.782,98.8h.38a4.485,4.485,0,0,1,3.992,2.788,3.821,3.821,0,0,1,2.471-.76h.063a4.526,4.526,0,0,1,4.119,3.042,7.473,7.473,0,0,1,1.711-.38h.063a4.535,4.535,0,0,1,4.372,4.5v.57h.317a4.535,4.535,0,0,1,4.372,4.5,5.06,5.06,0,0,1-.317,1.648,4.414,4.414,0,0,1,2.345,6.907,4.474,4.474,0,0,1,1.521,3.232,4.365,4.365,0,0,1-2.471,3.992,4.063,4.063,0,0,1,.76,2.6,4.318,4.318,0,0,1-3.042,4.182,4.184,4.184,0,0,1,.063.887,4.356,4.356,0,0,1-3.3,4.246,3.79,3.79,0,0,1-3.675,2.6Z" transform="translate(-42.3 -98.8)"/></g><g transform="translate(0 15.652)"><path class="d" d="M52.013,152.4h0a4.461,4.461,0,0,1-3.929-2.6,4.468,4.468,0,0,1-3.3-4.246,4.184,4.184,0,0,1,.063-.887,4.376,4.376,0,0,1-3.042-4.182,4.936,4.936,0,0,1,.76-2.6,4.3,4.3,0,0,1-2.471-3.992,4.154,4.154,0,0,1,1.521-3.232,4.484,4.484,0,0,1,3.485-7.161h.063a.475.475,0,0,1,.317.063h0l-.19,1.774h-.253a2.823,2.823,0,0,0-2.661,2.725,2.583,2.583,0,0,0,1.014,2.091.727.727,0,0,1,.317.76.779.779,0,0,1-.444.7,2.743,2.743,0,0,0-1.521,2.345,2.7,2.7,0,0,0,2.471,2.725.893.893,0,0,1,.76.634.9.9,0,0,1-.38.951,2.7,2.7,0,0,0,1.331,4.943.779.779,0,0,1,.7.444.948.948,0,0,1,.063.824,2.485,2.485,0,0,0-.253,1.141,2.673,2.673,0,0,0,2.345,2.661.824.824,0,0,1,.7.57,2.552,2.552,0,0,0,4.309.951.824.824,0,0,1,1.2,0c.19.19,1.2,1.014,2.725-.317l1.2,1.267a3.577,3.577,0,0,1-4.436.76,4.347,4.347,0,0,1-2.471.887Z" transform="translate(-40.1 -123.5)"/></g><g transform="translate(10.809 13.878)"><path class="d" d="M70.365,152.891a8.477,8.477,0,0,1-5.386-2.028L62.127,148.2l-.063-.063a5.714,5.714,0,0,1-.57-.634,18.918,18.918,0,0,1-4.246-13.814l.38-3.992a.779.779,0,0,1,.444-.7c.063-.063.127-.063.19-.127a1.336,1.336,0,0,0,.824-.76c.19-.253.063-.887-.253-1.774,0-.063-.063-.127-.063-.19a.671.671,0,0,1,.19-.824,1.049,1.049,0,0,1,.824-.317,2.786,2.786,0,0,0,1.964-.38,3.232,3.232,0,0,0,1.267-2.661.873.873,0,0,1,1.584-.57,3.584,3.584,0,0,0,1.964,1.267,3.507,3.507,0,0,0,2.978-.824.876.876,0,0,1,.76-.19.971.971,0,0,1,.634.444,2.26,2.26,0,0,0,2.535,1.267,2.289,2.289,0,0,0,1.838-1.9.889.889,0,0,1,.887-.76.839.839,0,0,1,.824.824,3.5,3.5,0,0,0,1.774,2.788,2.921,2.921,0,0,0,2.218.253.931.931,0,0,1,.887.317.911.911,0,0,1,.127.887,4.441,4.441,0,0,0,.57,3.422.916.916,0,0,1,.127.444v.127l.444,4.182a19.13,19.13,0,0,1-4.119,13.624c-.19.19-.317.38-.57.634a.062.062,0,0,1-.063.063l-2.788,2.661A8.11,8.11,0,0,1,70.365,152.891Zm-6.907-6.02,2.852,2.661a6.262,6.262,0,0,0,4.119,1.648,5.9,5.9,0,0,0,4.182-1.711l2.725-2.6c.127-.19.317-.38.444-.57a16.888,16.888,0,0,0,3.739-12.357l-.444-4.182V129.7a6.835,6.835,0,0,1-.7-3.485,4.226,4.226,0,0,1-2.155-.57,4.5,4.5,0,0,1-1.964-1.964,4.071,4.071,0,0,1-2.155,1.2,3.972,3.972,0,0,1-3.865-1.394,4.834,4.834,0,0,1-3.739.7,5.122,5.122,0,0,1-1.711-.7,4.561,4.561,0,0,1-1.774,2.471,4.121,4.121,0,0,1-1.9.7,3.331,3.331,0,0,1-.19,2.218,3.639,3.639,0,0,1-1.267,1.331l-.317,3.549A16.927,16.927,0,0,0,63.268,146.3C63.141,146.554,63.268,146.681,63.458,146.871Zm18.694-21.165Z" transform="translate(-57.157 -120.7)"/></g><g transform="translate(71.923 4.119)"><g transform="translate(0.444 38.591)"><g transform="translate(0 1.204)"><path class="c" d="M197.96,185.146c-4.436-5.26-3.739-5.7-10.266-8.3l-3.8-1.394c-1.774-.7-2.915-1.521-2.915-4.182v-2.915a8.431,8.431,0,0,1-5.957,2.345,9.173,9.173,0,0,1-6.4-2.6l.127,3.042a4.442,4.442,0,0,1-2.915,4.182l-3.8,1.394a21.6,21.6,0,0,0-7.731,5.069l14.448,30.353C168.938,212.331,190.23,200.988,197.96,185.146Z" transform="translate(-154.3 -168.1)"/></g><g transform="translate(14.321)"><path class="c" d="M176.9,167.4c.063,0,.063.063,0,0v0Z" transform="translate(-176.9 -166.2)"/></g></g><g transform="translate(0)"><g transform="translate(7.858 6.906)"><path class="c" d="M168.535,119.685c-1.2,0-2.218,4.436-2.218,4.436a18.462,18.462,0,0,0-.317,2.725v11.47a9.19,9.19,0,0,0,2.6,6.337l4.436,4.436a9.053,9.053,0,0,0,6.464,2.661,8.816,8.816,0,0,0,6.527-2.788l4.182-4.372a8.791,8.791,0,0,0,2.535-6.147v-11.66c0-5.133-1.838-9.442-6.59-10.582A51.586,51.586,0,0,1,168.535,119.685Z" transform="translate(-166 -116.199)"/></g><g transform="translate(5.133 0.887)"><path class="c" d="M164.488,128.245a24.506,24.506,0,0,1,.824-6.59,28.414,28.414,0,0,1,1.267-3.549,101.09,101.09,0,0,1,11.279,3.232,56.625,56.625,0,0,1,11.28-3.232,22.559,22.559,0,0,1,1.267,3.549,28.1,28.1,0,0,1,.824,6.4l2.281-.57-.127-6.59a14.255,14.255,0,0,0-2.788-8.365c-2.345-3.042-6.147-5.766-12.483-5.83H177.1c-6.21.063-10.075,2.725-12.483,5.83a14.552,14.552,0,0,0-2.788,8.365l-.127,6.59Z" transform="translate(-161.7 -106.7)"/></g><g transform="translate(34.029 20.024)"><path class="d" d="M208.124,146.6l-.824-1.584.887-.57h.063a2.649,2.649,0,0,0,1.394-1.774l.444-2.345a1.366,1.366,0,0,0-.317-1.077,1.4,1.4,0,0,0-1.014-.57h-.824V136.9h.824a2.909,2.909,0,0,1,2.345,1.141,3.188,3.188,0,0,1,.634,2.6l-.444,2.345a4.009,4.009,0,0,1-2.345,3.042Z" transform="translate(-207.3 -136.9)"/></g><g transform="translate(16.602 32.951)"><path class="d" d="M184.236,160.278a11.536,11.536,0,0,1-4.436-1.394l.824-1.584a9.32,9.32,0,0,0,3.612,1.141,8.976,8.976,0,0,0,3.549-1.141l.887,1.584A9.9,9.9,0,0,1,184.236,160.278Z" transform="translate(-179.8 -157.3)"/></g><g transform="translate(24.84 18.567)"><rect class="d" width="3.739" height="1.774"/></g><g transform="translate(13.624 18.567)"><rect class="d" width="3.739" height="1.774"/></g><g transform="translate(18.63 28.769)"><path class="d" d="M186.675,152.918a1.8,1.8,0,0,0-1.2-.57,1.561,1.561,0,0,0-1.2.57l-1.267-1.2a3.391,3.391,0,0,1,2.535-1.014,3.768,3.768,0,0,1,2.535,1.014Z" transform="translate(-183 -150.7)"/></g><g transform="translate(19.074 36.943)"><path class="d" d="M186.868,165.691a1.415,1.415,0,0,0-2.028,0L183.7,164.36a2.913,2.913,0,0,1,2.155-.76,3.416,3.416,0,0,1,2.218.824Z" transform="translate(-183.7 -163.6)"/></g><g transform="translate(23.953 21.292)"><path class="d" d="M191.4,141.5v-1.774a2.913,2.913,0,0,0,.824-.253,4.806,4.806,0,0,1,2.091-.57,4.649,4.649,0,0,1,2.281.57,3.962,3.962,0,0,0,.887.253V141.5a7.024,7.024,0,0,1-1.584-.317,5.2,5.2,0,0,0-1.774-.38,3.247,3.247,0,0,0-1.394.38A2.475,2.475,0,0,1,191.4,141.5Z" transform="translate(-191.4 -138.9)"/><g transform="translate(1.521 1.267)"><circle class="d" cx="1.331" cy="1.331" r="1.331"/></g></g><g transform="translate(11.66 21.165)"><path class="d" d="M178.4,141.425a4.518,4.518,0,0,1-1.648-.444,3.247,3.247,0,0,0-1.394-.38,5.938,5.938,0,0,0-1.774.38A4.412,4.412,0,0,1,172,141.3v-1.774a3.224,3.224,0,0,0,.887-.253,6.644,6.644,0,0,1,2.281-.57,4.129,4.129,0,0,1,2.091.57,1.7,1.7,0,0,0,.824.253v1.838l.317.063Z" transform="translate(-172 -138.7)"/><g transform="translate(2.218 1.394)"><path class="d" d="M175.5,142.231a1.331,1.331,0,1,0,1.331-1.331A1.338,1.338,0,0,0,175.5,142.231Z" transform="translate(-175.5 -140.9)"/></g></g><g transform="translate(0 39.795)"><path class="d" d="M154.867,182.421l-1.267-1.2a22.759,22.759,0,0,1,8.048-5.26l3.865-1.394a3.6,3.6,0,0,0,2.281-3.422l-.127-2.978,1.774-.063.127,2.978v.063a5.461,5.461,0,0,1-3.485,5.069l-3.865,1.394A22.428,22.428,0,0,0,154.867,182.421Z" transform="translate(-153.6 -168.1)"/></g><g transform="translate(26.108 40.492)"><path class="d" d="M212.036,185.549a21.528,21.528,0,0,0-9.822-7.731l-3.865-1.394c-1.774-.7-3.549-1.711-3.549-5.133V169.2h1.774v2.091c0,2.281.76,2.852,2.345,3.485l3.865,1.394a23.058,23.058,0,0,1,10.646,8.365Z" transform="translate(-194.8 -169.2)"/></g><g transform="translate(8.998 47.146)"><path class="d" d="M179.84,189.269a12.884,12.884,0,0,1-12.04-8.428l1.711-.634a11.1,11.1,0,0,0,20.975-.507l1.711.57A12.991,12.991,0,0,1,179.84,189.269Z" transform="translate(-167.8 -179.7)"/></g><g transform="translate(12.04 46.195)"><path class="d" d="M181.6,185.551a9.534,9.534,0,0,1-9-6.337l1.711-.634a7.971,7.971,0,0,0,7.414,5.133,7.834,7.834,0,0,0,7.541-5.513l1.711.57A9.935,9.935,0,0,1,181.6,185.551Z" transform="translate(-172.6 -178.2)"/></g><g transform="translate(6.717 19.517)"><path class="d" d="M178.775,160.053h0a9.861,9.861,0,0,1-7.1-2.915l-4.562-4.562a9.683,9.683,0,0,1-2.915-6.907v-8.681a.887.887,0,0,1,1.774,0v8.618a8.063,8.063,0,0,0,2.281,5.64l4.563,4.562a7.993,7.993,0,0,0,5.766,2.345h.063a7.866,7.866,0,0,0,5.83-2.535l4.372-4.5a7.7,7.7,0,0,0,2.218-5.576v-8.174h1.774v8.174a9.381,9.381,0,0,1-2.788,6.78l-4.372,4.5A8.587,8.587,0,0,1,178.775,160.053Z" transform="translate(-164.2 -136.1)"/></g><g transform="translate(4.372)"><path class="d" d="M162.274,127.1H160.5l.127-6.78a14.937,14.937,0,0,1,2.978-8.872c2.978-4.056,7.477-6.083,13.117-6.147H177.8c5.576.063,9.949,2.028,12.927,5.957a15.525,15.525,0,0,1,3.042,9l.127,6.78h-1.774l-.127-6.78a13.146,13.146,0,0,0-2.725-7.921c-2.725-3.485-6.59-5.26-11.6-5.386h-1.014c-5.069.063-8.935,1.9-11.66,5.45a12.81,12.81,0,0,0-2.6,7.794Z" transform="translate(-160.5 -105.3)"/></g><g transform="translate(6.78 11.204)"><path class="d" d="M164.3,133.956a27.475,27.475,0,0,1,1.077-6.717,21.406,21.406,0,0,1,1.331-3.675,1.045,1.045,0,0,1,.951-.57,71.085,71.085,0,0,1,11.026,3.168,64.731,64.731,0,0,1,11.026-3.168.83.83,0,0,1,.951.57,21.408,21.408,0,0,1,1.331,3.675,24.222,24.222,0,0,1,.824,6.59h-1.774a22.847,22.847,0,0,0-.76-6.147,24.132,24.132,0,0,0-.951-2.788A65.375,65.375,0,0,0,178.938,128a1.08,1.08,0,0,1-.634,0,76.122,76.122,0,0,0-10.392-3.105,18,18,0,0,0-.951,2.788,26.564,26.564,0,0,0-1.014,6.21Z" transform="translate(-164.3 -122.981)"/></g></g></g><g transform="translate(29.189 0.887)"><g transform="translate(7.385 1.331)"><path class="c" d="M100.594,154.832c-4.056-6.59-2.028-8.681-2.345-15.905-.253-5.766-1.521-10.2,1.964-17.49.951-2.028.634-5.386,1.331-6.97,3.3-7.794,8.618-12.167,17.3-12.167h.063c8.745,0,13.878,4.246,17.3,12.167,1.774,6.59,5.513,17.933,3.929,25.537.887,6.464-.317,11.913-2.218,15.208Z" transform="translate(-97.817 -102.3)"/></g><g transform="translate(15.359 5.386)"><path class="c" d="M137.078,124.035c.57,9-3.929,21.165-13.307,21.165-9.125,0-13.371-13.181-13.371-21.038s5.513-15.462,13.371-15.462C131.692,108.827,137.078,124.035,137.078,124.035Z" transform="translate(-110.4 -108.7)"/></g><g transform="translate(27.652 1.267)"><path class="e" d="M129.8,102.2h0Z" transform="translate(-129.8 -102.2)"/></g><g transform="translate(0.784 39.732)"><path class="c" d="M140.185,186.029a27.686,27.686,0,0,0-15.715-15.208,6.17,6.17,0,0,1-3.8-5.64V162.9h-.317c-1.774,1.774-2.788,2.725-5.2,2.788-2.471,0-3.422-1.014-5.2-2.788h-.317v2.281a6.139,6.139,0,0,1-3.8,5.64c-8.872,3.485-14.7,11.6-16.159,20.975L87.4,210.426l56.524.063C144.051,210.489,140.946,190.592,140.185,186.029Z" transform="translate(-87.4 -162.9)"/></g><g transform="translate(31.644 20.682)"><path class="d" d="M137.241,135.348l-1.141-1.331c2.091-1.774,4.372-1.141,5.893-.7a4.3,4.3,0,0,0,1.077.253v1.774a5.8,5.8,0,0,1-1.584-.317C140.156,134.588,138.7,134.208,137.241,135.348Z" transform="translate(-136.1 -132.837)"/><g transform="translate(2.091 1.165)"><path class="d" d="M142.188,136.085a1.394,1.394,0,1,1-1.394-1.394A1.3,1.3,0,0,1,142.188,136.085Z" transform="translate(-139.4 -134.676)"/></g></g><g transform="translate(19.224 20.618)"><path class="d" d="M122.266,135.312c-1.394-1.141-2.978-.76-4.182-.38a5.022,5.022,0,0,1-1.584.317v-1.774a6.045,6.045,0,0,0,1.077-.253c1.521-.444,3.739-1.077,5.893.7Z" transform="translate(-116.5 -132.737)"/><g transform="translate(2.091 1.244)"><circle class="d" cx="1.394" cy="1.394" r="1.394"/></g></g><g transform="translate(26.131 27.945)"><path class="d" d="M128.667,146.581l-1.267-1.2a3.826,3.826,0,0,1,5.323,0l-1.267,1.2a1.824,1.824,0,0,0-1.331-.57A2.537,2.537,0,0,0,128.667,146.581Z" transform="translate(-127.4 -144.3)"/></g><g transform="translate(26.575 35.359)"><path class="d" d="M130.381,158.154a3.209,3.209,0,0,1-2.281-.887L129.3,156a1.651,1.651,0,0,0,2.218,0l1.141,1.331A3.588,3.588,0,0,1,130.381,158.154Z" transform="translate(-128.1 -156)"/></g><g transform="translate(24.294 32.337)"><path class="d" d="M125.26,154.126a2.841,2.841,0,0,1-.76-.063l.444-1.774c.951.253,1.9-.76,1.9-.76a.863.863,0,0,1,1.077-.19l1.014.57,1.077-.57a.863.863,0,0,1,1.077.19s.887,1.014,1.838.76L133.5,154a3.335,3.335,0,0,1-3.168-.824l-.887.444a.94.94,0,0,1-.824,0l-.887-.444A3.853,3.853,0,0,1,125.26,154.126Z" transform="translate(-124.5 -151.231)"/></g><g transform="translate(0 39.605)"><path class="d" d="M143.6,211.3,87.01,211.24c-.253,0-.57-.127-.634-.317a.715.715,0,0,1-.19-.7L87.77,199.58c1.014-11.913,4.372-18,4.5-18.25,3.105-5.576,7.668-8.174,11.279-10.329a17.747,17.747,0,0,0,4.119-2.852c1.774-1.774,1.2-4.879,1.2-4.879l1.774-.317c0,.19.634,4.056-1.711,6.464a22.194,22.194,0,0,1-4.5,3.105c-3.422,1.964-7.731,4.562-10.582,9.7-.063.063-3.3,6.02-4.246,17.49v.063l-1.331,9.7,54.433.063-1.014-7.414v-.063a83.4,83.4,0,0,0-2.978-15.462c-2.661-8.365-8.111-11.533-12.483-14.194a22.2,22.2,0,0,1-4.5-3.105c-2.281-2.345-1.774-6.527-1.711-6.59l1.774.253c0,.063-.57,3.422,1.2,5.133a24.134,24.134,0,0,0,4.119,2.852c4.436,2.661,10.456,6.147,13.371,15.208a99.99,99.99,0,0,1,2.978,15.779l1.141,8.365a.839.839,0,0,1-.19.7A1.236,1.236,0,0,1,143.6,211.3Z" transform="translate(-86.162 -162.7)"/></g><g transform="translate(11.05 52.595)"><path class="d" d="M121.533,194.163a8.053,8.053,0,0,1-3.232-1.014,6.317,6.317,0,0,0-3.675-.951,7.457,7.457,0,0,1-3.3-.634,6.916,6.916,0,0,1-2.345-2.535,15.83,15.83,0,0,0-1.141-1.521,8.552,8.552,0,0,0-1.584-1.077,8.045,8.045,0,0,1-2.661-2.218l1.584-.887a6.688,6.688,0,0,0,1.964,1.711,9,9,0,0,1,1.774,1.267,12.254,12.254,0,0,1,1.394,1.774,5.75,5.75,0,0,0,1.774,1.9,6.251,6.251,0,0,0,2.535.444,9,9,0,0,1,2.281.253,14.76,14.76,0,0,1,2.091.887,5.7,5.7,0,0,0,2.471.824,5.944,5.944,0,0,0,2.535-.824,11.33,11.33,0,0,1,2.028-.824,9.529,9.529,0,0,1,2.218-.253,6.781,6.781,0,0,0,2.6-.444,6.014,6.014,0,0,0,1.774-1.964,9.274,9.274,0,0,1,1.331-1.774,8.657,8.657,0,0,1,1.774-1.331,5.429,5.429,0,0,0,1.964-1.774l1.584.824a6.586,6.586,0,0,1-2.6,2.345,15.791,15.791,0,0,0-1.521,1.077,6.283,6.283,0,0,0-1.077,1.584,8.147,8.147,0,0,1-2.281,2.6,7.339,7.339,0,0,1-3.3.7,16.062,16.062,0,0,0-1.9.19,16.857,16.857,0,0,0-1.774.7A8.721,8.721,0,0,1,121.533,194.163Z" transform="translate(-103.6 -183.2)"/></g><g transform="translate(14.662 49.174)"><path class="d" d="M123.621,187.052A16.52,16.52,0,0,1,109.3,179l1.584-.887a15.155,15.155,0,0,0,12.737,7.161,13.893,13.893,0,0,0,12.547-7.477l1.648.824A15.779,15.779,0,0,1,123.621,187.052Z" transform="translate(-109.3 -177.8)"/></g><g transform="translate(5.796)"><path class="d" d="M137.443,154.126l-1.521-1.014.253-.38a14.629,14.629,0,0,0,2.915-6.78,16.8,16.8,0,0,0-.38-4.182,22.237,22.237,0,0,1-.57-4.119,25.773,25.773,0,0,1,.38-3.865,13.357,13.357,0,0,0,.317-4.436,18.593,18.593,0,0,0-1.267-4.436,21.113,21.113,0,0,1-1.141-3.549c-.19-.824-.317-1.711-.57-2.535a26.808,26.808,0,0,0-1.394-5.513.062.062,0,0,0-.063-.063c-.127-.444-3.865-11.343-16.286-11.343h.063c-7.794,0-13.117,3.675-16.476,11.6l-.317.634a17.357,17.357,0,0,0-1.014,4.246,21.959,21.959,0,0,1-.57,2.978,28.673,28.673,0,0,1-1.141,3.549,16.062,16.062,0,0,0-1.267,4.436,17.864,17.864,0,0,0,.317,4.436,26.615,26.615,0,0,1,.38,3.865,17.929,17.929,0,0,1-.57,4.119,14.252,14.252,0,0,0-.38,4.182,14.006,14.006,0,0,0,2.915,6.78l.253.38-1.521,1.014-.253-.38a15.458,15.458,0,0,1-3.168-7.6,17.346,17.346,0,0,1,.38-4.689c.253-1.2.444-2.6.57-3.8a25.976,25.976,0,0,0-.38-3.612,15.848,15.848,0,0,1-.317-4.879,20.622,20.622,0,0,1,1.394-4.879,26.8,26.8,0,0,0,1.077-3.168c.19-1.014.38-1.964.57-2.915a21.736,21.736,0,0,1,1.141-4.753l.317-.634c3.739-8.618,9.442-12.61,18.123-12.61h.063c13.307,0,17.616,11.66,18,12.547a34.654,34.654,0,0,1,1.521,5.893c.127.824.317,1.711.444,2.535a17.028,17.028,0,0,0,1.077,3.168,20.621,20.621,0,0,1,1.394,4.879,17.921,17.921,0,0,1-.317,4.879,24.131,24.131,0,0,0-.38,3.612,15.328,15.328,0,0,0,.57,3.8,14.84,14.84,0,0,1,.38,4.689,16.068,16.068,0,0,1-3.168,7.6Z" transform="translate(-95.309 -100.2)"/></g><g transform="translate(14.654 10.836)"><path class="d" d="M123.363,149.681a8.269,8.269,0,0,1-5.7-2.218l-3.042-2.852a.062.062,0,0,1-.063-.063c-.19-.19-.38-.444-.57-.634a20.425,20.425,0,0,1-4.626-14.891l.444-4.626a.88.88,0,0,1,.317-.634,1.277,1.277,0,0,1,.7-.19l4.182.76c3.612-.444,6.97-3.105,7.668-6.337a.885.885,0,0,1,.824-.7.9.9,0,0,1,.887.57c0,.063,2.155,5.957,6.844,5.957l4.562-.127h0a.888.888,0,0,1,.887.76l.57,4.562h0a20.326,20.326,0,0,1-4.436,14.638,5.716,5.716,0,0,1-.57.634.062.062,0,0,1-.063.063l-2.978,2.852A7.806,7.806,0,0,1,123.363,149.681Zm-7.477-6.337,3.042,2.852a6.6,6.6,0,0,0,4.5,1.774,6.419,6.419,0,0,0,4.562-1.838l2.978-2.852a4.84,4.84,0,0,1,.57-.57,18.746,18.746,0,0,0,4.056-13.371l-.444-3.8-3.8.063c-3.992,0-6.464-3.042-7.668-5.2a11.3,11.3,0,0,1-8.555,5.576h-.253l-3.422-.57-.38,3.675a19.332,19.332,0,0,0,4.182,13.687A5.713,5.713,0,0,1,115.886,143.344Z" transform="translate(-109.288 -117.3)"/></g><g transform="translate(28.032 1.711)"><rect class="d" width="1.774" height="10.836"/></g></g><g transform="translate(72.049 70.845)"><path class="d" d="M155.131,227.963,153.8,214.4v-.253a12.618,12.618,0,0,1,1.394-3.549l1.584.824a19.422,19.422,0,0,0-1.2,2.915l1.267,13.371Z" transform="translate(-153.8 -210.6)"/></g><g transform="translate(41.316 70.909)"><path class="d" d="M107.074,228l-1.774-.19,1.267-13.371a16.955,16.955,0,0,0-1.2-2.915l1.584-.824a12.618,12.618,0,0,1,1.394,3.549v.253Z" transform="translate(-105.3 -210.7)"/></g></g><g transform="translate(19.728 158.875)"><path class="a" d="M154.972,242.246H33.243c-2.725,0-4.943-1.9-4.943-4.246H159.979C159.915,240.345,157.7,242.246,154.972,242.246Z" transform="translate(-28.3 -238)"/></g><g transform="translate(8.259 158.051)"><rect class="d" width="154.618" height="1.584"/></g><g transform="translate(30.159 31.822)"><g transform="translate(0)"><path class="b" d="M48.144,52.455a.484.484,0,0,1-.317-.127.618.618,0,0,1-.253-.57l.76-4.689-3.422-3.3a.608.608,0,0,1-.127-.57.544.544,0,0,1,.444-.38l4.689-.7,2.091-4.309a.646.646,0,0,1,.507-.317.564.564,0,0,1,.507.317l2.155,4.246,4.753.634a.544.544,0,0,1,.444.38.608.608,0,0,1-.127.57l-3.422,3.358.824,4.689a.552.552,0,0,1-.253.57.616.616,0,0,1-.57.063L52.58,50.11l-4.119,2.281A.571.571,0,0,1,48.144,52.455ZM46.56,43.773,49.348,46.5a.72.72,0,0,1,.19.507L48.9,50.871l3.485-1.838a.694.694,0,0,1,.507,0l3.485,1.774-.7-3.865a.425.425,0,0,1,.19-.507l2.788-2.725L54.8,43.14c-.19,0-.317-.127-.444-.317L52.58,39.338l-1.711,3.549a.477.477,0,0,1-.444.317Z" transform="translate(-44.761 -37.5)"/></g></g><g transform="translate(151.533 27.006)"><path class="b" d="M238.771,40.673a.381.381,0,0,1-.253-.063.452.452,0,0,1-.19-.38l.57-3.359-2.471-2.408a.535.535,0,0,1-.127-.444.421.421,0,0,1,.317-.253l3.422-.507,1.521-3.105a.428.428,0,0,1,.38-.253.394.394,0,0,1,.38.253l1.521,3.042,3.422.507a.392.392,0,0,1,.19.7l-2.471,2.408.57,3.359a.452.452,0,0,1-.19.38.557.557,0,0,1-.444.063l-3.042-1.584-3.105,1.648Zm-1.141-6.21,2.028,1.964c.127.063.127.253.127.38l-.444,2.788,2.471-1.394a.4.4,0,0,1,.38,0l2.471,1.267-.507-2.788a.466.466,0,0,1,.127-.38l2.028-1.964-2.788-.38a.421.421,0,0,1-.317-.253l-1.267-2.535-1.2,2.535a.633.633,0,0,1-.317.253Z" transform="translate(-236.3 -29.9)"/></g><g transform="translate(60.859 43.993)"><g transform="translate(0 0)"><path class="b" d="M99.983,68.3a.9.9,0,0,1-.38-.127c-.063-.063-3.739-3.232-4.879-4.182a4.271,4.271,0,0,1-.507-6.02c1.2-1.394,3.422-1.9,5.7-.127,2.345-1.774,4.5-1.267,5.7.127a4.271,4.271,0,0,1-.507,6.02c-1.077.951-4.816,4.182-4.879,4.182C100.237,68.235,100.11,68.3,99.983,68.3ZM96.942,57.78a2.477,2.477,0,0,0-1.9.887,3.1,3.1,0,0,0,.38,4.436c.887.76,3.485,3.042,4.5,3.865.951-.824,3.612-3.105,4.5-3.865a3.1,3.1,0,0,0,.38-4.436c-.887-1.014-2.535-1.457-4.5.317a.577.577,0,0,1-.76,0A3.834,3.834,0,0,0,96.942,57.78Z" transform="translate(-93.208 -56.707)"/></g><g transform="translate(6.205 1.77)"><rect class="b" width="1.141" height="1.077"/></g></g></g></svg>