<svg xmlns="http://www.w3.org/2000/svg" width="171.464" height="141.12" viewBox="0 0 171.464 141.12"><defs><style>.a{fill:#c9c9c9;}.b{fill:#282828;}.c,.h{fill:#009e4f;}.d,.e{fill:#fff;}.d,.h{stroke:#009e4f;stroke-miterlimit:10;}.f{fill:#e8f0fc;}.g{fill:#ffd9d2;}</style></defs><g transform="translate(-1.8 -26)"><g transform="translate(87.847 35.281)"><g transform="translate(0.442 0)"><path class="a" d="M146.693,91.046,133.2,88.61l6.582-36.07L149,40.1l4.278,14.876ZM134.319,87.82,145.9,89.927l6.319-34.885-3.686-12.769-7.964,10.663Z" transform="translate(-133.2 -40.1)"/></g><g transform="translate(11.707 6.715)"><rect class="a" width="0.987" height="6.121" transform="translate(0 0.971) rotate(-79.682)"/></g><g transform="translate(6.366 13.296)"><path class="a" d="M154.772,66.356l-2.3-3.489-3.818,2.764-2.567-3.949-3.291,2.5-.592-.79,4.213-3.094,2.567,3.883,3.752-2.7,2.83,4.344Z" transform="translate(-142.2 -60.3)"/></g><g transform="translate(0 50.221)"><path class="a" d="M142.12,123.969a6.8,6.8,0,0,1-3.949.461,6.946,6.946,0,0,1-4.41-2.9,6.807,6.807,0,0,1-1.119-5.134l.987.132a5.862,5.862,0,0,0,9.149,5.858,5.756,5.756,0,0,0,2.435-3.752l.987.132a6.946,6.946,0,0,1-2.9,4.41A2.686,2.686,0,0,1,142.12,123.969Z" transform="translate(-132.528 -116.4)"/></g><g transform="translate(1.557 44.057)"><rect class="a" width="0.987" height="12.703" transform="translate(0 0.971) rotate(-79.682)"/></g><g transform="translate(7.369 17.94)"><rect class="a" width="28.303" height="0.987" transform="matrix(0.179, -0.984, 0.984, 0.179, 0, 27.845)"/></g></g><g transform="translate(1.8 26)"><g transform="translate(0 96.823)"><g transform="translate(7.701)"><rect class="a" width="1.119" height="4.937"/></g><g transform="translate(11.782 7.306)"><rect class="a" width="4.937" height="1.119"/></g><g transform="translate(7.701 11.716)"><rect class="a" width="1.119" height="4.937"/></g><g transform="translate(0 7.306)"><rect class="a" width="4.937" height="1.119"/></g></g><g transform="translate(114.397 87.74)"><g transform="translate(13.822)"><path class="a" d="M197.061,161.34l-.461-.987a4.541,4.541,0,0,1,.658-.263,9.573,9.573,0,0,1,1.646-.592,6.831,6.831,0,0,1,.79-.2l.263,1.053a6.838,6.838,0,0,0-.79.2,4.716,4.716,0,0,0-1.448.527A6.833,6.833,0,0,1,197.061,161.34Z" transform="translate(-196.6 -159.3)"/></g><g transform="translate(0 2.896)"><path class="a" d="M176.587,176.864l-.987-.461a32.369,32.369,0,0,1,10.926-12.7l.592.921A31.052,31.052,0,0,0,176.587,176.864Z" transform="translate(-175.6 -163.7)"/></g><g transform="translate(2.304 2.238)"><path class="a" d="M232.349,202.456H189.631v-1.119H231.3v-11.65a25.871,25.871,0,0,0-51.143-5.529l-1.053-.263a27.007,27.007,0,0,1,53.381,5.792v12.769Z" transform="translate(-179.1 -162.7)"/></g><g transform="translate(10.663 10.729)"><path class="a" d="M227.673,198.374H191.8V193.5a17.9,17.9,0,1,1,35.807,0v4.871Zm-34.754-1.119h33.635v-3.818a16.85,16.85,0,1,0-33.7,0l.066,3.818Z" transform="translate(-191.8 -175.6)"/></g><g transform="translate(15.205 36.794)"><rect class="a" width="1.119" height="4.607"/></g><g transform="translate(23.564 36.794)"><rect class="a" width="1.119" height="4.607"/></g><g transform="translate(31.989 36.794)"><rect class="a" width="1.119" height="4.607"/></g><g transform="translate(40.348 36.794)"><rect class="a" width="1.119" height="4.607"/></g><g transform="translate(47.786 36.794)"><rect class="a" width="1.119" height="4.607"/></g></g><g transform="translate(117.361)"><g transform="translate(5.987 3.883)"><path class="a" d="M208.617,80.344h-.395V79.225h1.448l.066,1.119A6.341,6.341,0,0,0,208.617,80.344Zm-1.909-.066a11.75,11.75,0,0,1-1.514-.132l.132-1.119a10.762,10.762,0,0,0,1.448.132Zm4.476-.066-.132-1.119a10.931,10.931,0,0,0,1.448-.2l.132,1.119C212.172,80.081,211.711,80.147,211.184,80.213Zm-7.438-.329c-.461-.066-.987-.2-1.448-.263l.263-1.053a10.217,10.217,0,0,0,1.382.263Zm10.4-.132-.2-1.053a10.522,10.522,0,0,0,1.382-.329l.263,1.053A11.462,11.462,0,0,1,214.146,79.752Zm-13.3-.527a12.28,12.28,0,0,1-1.448-.461l.329-1.053a10.893,10.893,0,0,0,1.382.395Zm16.192-.2-.329-1.053a11.342,11.342,0,0,0,1.382-.461l.395,1.053A12.283,12.283,0,0,1,217.042,79.028ZM198.02,78.3l-1.382-.592.461-.987c.461.2.856.395,1.316.592Zm21.853-.263-.461-.987c.461-.2.856-.395,1.316-.592l.461.987C220.728,77.646,220.333,77.843,219.873,78.041Zm-24.617-.987c-.461-.263-.856-.461-1.316-.724l.592-.921c.395.263.856.461,1.251.724Zm27.25-.329-.527-.987a12.224,12.224,0,0,0,1.251-.724l.592.922C223.361,76.2,222.966,76.461,222.505,76.724Zm-29.817-1.185c-.395-.263-.79-.592-1.251-.856l.658-.856c.395.263.79.592,1.185.856Zm32.384-.395-.658-.921c.395-.263.79-.592,1.185-.856l.658.856C225.862,74.552,225.467,74.815,225.072,75.144ZM190.319,73.7c-.395-.329-.79-.658-1.119-.987l.724-.79a13.173,13.173,0,0,0,1.053.922Zm37.123-.395-.724-.856c.329-.329.724-.658,1.053-.987l.79.79C228.166,72.643,227.771,72.972,227.442,73.3Zm2.106-2.106-.79-.724c.329-.329.658-.724.987-1.053l.856.724Zm1.975-2.238-.856-.658c.263-.395.592-.79.856-1.185l.922.592C232.115,68.167,231.786,68.562,231.523,68.957Zm1.646-2.5-.921-.592c.263-.395.461-.856.724-1.251l.987.527C233.7,65.6,233.432,66.061,233.168,66.456Zm1.448-2.633-.987-.461c.2-.461.395-.856.592-1.316l.987.395Zm1.119-2.764-1.053-.395c.132-.461.329-.922.461-1.382l1.053.329A9.32,9.32,0,0,1,235.736,61.059Zm.856-2.9-1.053-.263a10.222,10.222,0,0,0,.263-1.382l1.053.2C236.789,57.241,236.657,57.7,236.591,58.163Zm.527-2.9L236,55.135a9.859,9.859,0,0,0,.132-1.448l1.119.066A11.75,11.75,0,0,1,237.118,55.266Zm.2-3.028H236.2V50.791h1.119v1.448Zm-1.185-2.9c-.066-.461-.066-.987-.132-1.448l1.119-.132a10.8,10.8,0,0,1,.132,1.514Zm-.329-2.83a10.516,10.516,0,0,0-.329-1.382l1.053-.263c.132.461.2.987.329,1.448Zm-.724-2.764a11.342,11.342,0,0,0-.461-1.382l1.053-.395a9.323,9.323,0,0,1,.461,1.448Zm-.921-2.7c-.2-.461-.395-.856-.592-1.316l.987-.461.592,1.382Zm-1.251-2.633a12.225,12.225,0,0,0-.724-1.251l.921-.592a8.434,8.434,0,0,1,.724,1.316Zm-1.514-2.435a13.346,13.346,0,0,0-.856-1.185l.856-.658a13.347,13.347,0,0,1,.856,1.185Zm-1.711-2.3c-.329-.395-.658-.724-.987-1.053l.79-.724c.329.329.658.724.987,1.119Z" transform="translate(-189.2 -31.9)"/></g><g transform="translate(1.314)"><path class="a" d="M206.191,74.181a24.091,24.091,0,1,1,24.091-24.091A24.1,24.1,0,0,1,206.191,74.181Zm0-47.062a22.972,22.972,0,1,0,22.972,22.972A23.035,23.035,0,0,0,206.191,27.119Z" transform="translate(-182.1 -26)"/></g><g transform="translate(34.29 7.109)"><path class="a" d="M234.635,39.433a19.761,19.761,0,0,0-2.435-1.646l.527-.987a17.413,17.413,0,0,1,2.567,1.711Z" transform="translate(-232.2 -36.8)"/></g><g transform="translate(14.083 4.673)"><path class="a" d="M202.158,37.707l-.658-.921A19.387,19.387,0,0,1,212.821,33.1,19.063,19.063,0,0,1,220,34.482l-.395,1.053a18.28,18.28,0,0,0-6.78-1.316A17.828,17.828,0,0,0,202.158,37.707Z" transform="translate(-201.5 -33.1)"/></g><g transform="translate(7.041 11.979)"><path class="a" d="M204.557,75.4h-1.119V71.582a1.63,1.63,0,0,0-1.646-1.646h-3.357a2.764,2.764,0,0,1,0-5.529H206.4a3.292,3.292,0,0,0,0-6.45h-8.82a2.62,2.62,0,0,1-2.435-2.83,2.664,2.664,0,0,1,2.435-2.83h2.37c1.58,0,2.9-1.58,2.9-3.489s-1.316-3.489-2.9-3.489H190.8V44.2h9.149c2.172,0,3.949,2.04,3.949,4.607s-1.777,4.607-3.949,4.607h-2.37a1.618,1.618,0,0,0-1.382,1.711,1.53,1.53,0,0,0,1.382,1.711h8.82c2.04,0,3.752,1.975,3.752,4.344s-1.711,4.344-3.752,4.344h-7.964a1.646,1.646,0,0,0,0,3.291h3.357a2.781,2.781,0,0,1,2.764,2.764V75.4Z" transform="translate(-190.8 -44.2)"/></g><g transform="translate(31.263 16.916)"><path class="a" d="M229.9,72.829h-1.119v-2.3a4.1,4.1,0,0,1,4.081-4.081h4.476a1.909,1.909,0,0,0,0-3.818h-4.213c-2.9,0-5.134-2.764-5.463-5.463H227.6V56.5h.066a5.486,5.486,0,0,1,5.463-4.8h6.582v1.119h-6.582a4.334,4.334,0,0,0-4.344,4.081c.2,2.238,2.04,4.739,4.344,4.739h4.213a2.962,2.962,0,0,1,0,5.924h-4.476a2.95,2.95,0,0,0-2.962,2.962v2.3Z" transform="translate(-227.6 -51.7)"/></g><g transform="translate(41.137 0.027)"><rect class="a" width="10.4" height="1.119" transform="translate(0 7.354) rotate(-45)"/></g><g transform="translate(0 39.79)"><rect class="a" width="10.4" height="1.119" transform="translate(0 7.354) rotate(-45)"/></g><g transform="translate(20.995 54.039)"><rect class="a" width="1.119" height="5.134"/></g><g transform="translate(29.156 54.039)"><rect class="a" width="1.119" height="5.134"/></g><g transform="translate(13.886 58.647)"><path class="a" d="M224.83,122.274H201.2v-.527a6.63,6.63,0,0,1,6.648-6.648h10.334a6.63,6.63,0,0,1,6.648,6.648Zm-22.577-1.119h21.392a5.519,5.519,0,0,0-5.529-5H207.782A5.67,5.67,0,0,0,202.253,121.156Z" transform="translate(-201.2 -115.1)"/></g><g transform="translate(11.78 64.702)"><path class="a" d="M240.323,134.963H204.911v-1.119H239.27v-8.425H198V124.3h42.323Z" transform="translate(-198 -124.3)"/></g><g transform="translate(42.321 65.295)"><rect class="a" width="1.119" height="9.544"/></g><g transform="translate(46.336 65.295)"><rect class="a" width="1.119" height="9.544"/></g><g transform="translate(16.387 69.507)"><path class="a" d="M224.088,132.719H222.64V131.6h1.448Zm-2.962,0h-1.448V131.6h1.448Zm-2.9,0h-1.514V131.6h1.448v1.119Zm-2.962,0H213.82V131.6h1.448Zm-2.962,0h-1.448V131.6h1.448Zm-2.9,0h-1.448V131.6h1.448Zm-2.962,0H205V131.6h1.448Z" transform="translate(-205 -131.6)"/></g></g><g transform="translate(1.711 1.909)"><g transform="translate(0.724 11.979)"><path class="a" d="M20.968,113.579H5.5V47.1H6.553v65.36H20.968Z" transform="translate(-5.5 -47.1)"/></g><g transform="translate(41.467 68.717)"><path class="a" d="M84.382,143.042H67.4v-1.119H83.329V133.3h1.053Z" transform="translate(-67.4 -133.3)"/></g><g transform="translate(1.185)"><path class="a" d="M57.211,49.107,40.229,29.953H6.2V28.9H40.69L58.067,48.449Z" transform="translate(-6.2 -28.9)"/></g><g transform="translate(34.951 0.527)"><path class="a" d="M72.244,55.568H57.5V29.7h1.053V54.515H72.244Z" transform="translate(-57.5 -29.7)"/></g><g transform="translate(7.174 7.701)"><path class="a" d="M25.9,52.645H19.052l-1.514,4.147H15.3L21.553,40.6h1.909l6.187,16.192H27.411ZM19.776,50.8h5.463L22.606,43.43H22.54Z" transform="translate(-15.3 -40.6)"/></g><g transform="translate(11.124 34.885)"><path class="a" d="M24.854,89.272,21.3,85.718l.724-.658,2.83,2.7L30.712,81.9l.724.724Z" transform="translate(-21.3 -81.9)"/></g><g transform="translate(7.833 31.66)"><path class="a" d="M31.044,91.546H16.3V77H30.517v1.053H17.353V90.427H29.991V87.136h1.053Z" transform="translate(-16.3 -77)"/></g><g transform="translate(11.124 57.33)"><path class="a" d="M24.854,123.438,21.3,119.949l.724-.79,2.83,2.83L30.712,116l.724.79Z" transform="translate(-21.3 -116)"/></g><g transform="translate(7.833 54.105)"><path class="a" d="M31.044,125.646H16.3V111.1H30.517v1.119H17.353v12.374H29.991V121.3h1.053Z" transform="translate(-16.3 -111.1)"/></g><g transform="translate(31.199 34.819)"><rect class="a" width="15.6" height="1.053"/></g><g transform="translate(31.265 42.586)"><path class="a" d="M68.816,94.653h0L68.75,93.6h.066Zm-1.514,0H65.92V93.6H67.3Zm-2.764,0H63.155V93.6h1.382Zm-2.83,0H60.325V93.6h1.382Zm-2.83,0H57.495V93.6h1.382Zm-2.83,0H54.664V93.6h1.382Zm-2.764,0H51.9V93.6h1.382Z" transform="translate(-51.9 -93.6)"/></g><g transform="translate(31.462 56.869)"><rect class="a" width="9.017" height="1.053"/></g><g transform="translate(21.458 10.86)"><g transform="translate(5.595 4.015)"><rect class="b" width="2.896" height="1.053"/></g><g transform="translate(3.686 6.187)"><rect class="a" width="1.053" height="2.83"/></g><g transform="translate(0 4.015)"><rect class="a" width="8.491" height="1.053"/></g><g transform="translate(3.686)"><rect class="a" width="1.053" height="6.187"/></g></g><g transform="translate(0 5.463)"><path class="a" d="M4.4,38.385A1.185,1.185,0,1,0,5.585,37.2,1.179,1.179,0,0,0,4.4,38.385Z" transform="translate(-4.4 -37.2)"/></g></g></g><g transform="translate(19.243 161.986)"><path class="b" d="M159.876,237.734H33.434A5.141,5.141,0,0,1,28.3,232.6H165.076A5.241,5.241,0,0,1,159.876,237.734Z" transform="translate(-28.3 -232.6)"/></g><g transform="translate(7.329 160.999)"><rect class="c" width="160.603" height="1.909" transform="translate(0 0)"/></g><g transform="translate(29.313 52.723)"><g transform="translate(0 24.091)"><g transform="translate(8.623 0.921)"><path class="d" d="M140.819,104.6H60.057c-1.843,0-3.357,2.37-3.357,4.213v3.357h84.119Z" transform="translate(-56.7 -104.6)"/><g transform="translate(83.329)"><path class="e" d="M197.188,104.6H183.827l-.527,7.569h16.916v-3.357C200.282,106.9,199.031,104.6,197.188,104.6Z" transform="translate(-183.3 -104.6)"/></g></g><g transform="translate(8.623 7.767)"><path class="e" d="M156.88,177,56.7,176.345V115.329L156.88,115Z" transform="translate(-56.7 -115)"/></g><g transform="translate(1.316 69.573)"><path class="d" d="M80.814,208.9H45.6v4.673a3.371,3.371,0,0,0,3.357,3.357H156.509a3.371,3.371,0,0,0,3.357-3.357V208.9H80.814Z" transform="translate(-45.6 -208.9)"/></g><g transform="translate(48.049 69.968)"><path class="d" d="M116.6,209.5V212a1.743,1.743,0,0,0,1.711,1.711h17.377A1.743,1.743,0,0,0,137.4,212v-2.5Z" transform="translate(-116.6 -209.5)"/></g><g transform="translate(0 68.783)"><path class="c" d="M155.957,217.639H47.878a4.27,4.27,0,0,1-4.278-4.278v-4.673a1.012,1.012,0,0,1,.987-.987H159.379a1.012,1.012,0,0,1,.987.987v4.673A4.472,4.472,0,0,1,155.957,217.639Zm-110.448-8.03v3.752a2.36,2.36,0,0,0,2.37,2.37H155.957a2.36,2.36,0,0,0,2.37-2.37v-3.752Z" transform="translate(-43.6 -207.7)"/></g><g transform="translate(8.03)"><path class="c" d="M57.709,172.97H55.8V107.478a4.27,4.27,0,0,1,4.278-4.278h80.433v1.909H60.078a2.36,2.36,0,0,0-2.37,2.37Z" transform="translate(-55.8 -103.2)"/></g><g transform="translate(92.808)"><path class="c" d="M201.582,172.97h-1.909V107.478a2.36,2.36,0,0,0-2.37-2.37H184.6V103.2h12.7a4.27,4.27,0,0,1,4.278,4.278Z" transform="translate(-184.6 -103.2)"/></g><g transform="translate(47.062 69.77)"><path class="c" d="M134.978,214.729H117.733A2.641,2.641,0,0,1,115.1,212.1v-2.9h1.909v2.9a.73.73,0,0,0,.724.724h17.245a.73.73,0,0,0,.724-.724v-2.9h1.909v2.9A2.641,2.641,0,0,1,134.978,214.729Z" transform="translate(-115.1 -209.2)"/></g><g transform="translate(92.742 6.845)"><rect class="c" width="16.06" height="1.909"/></g><g transform="translate(8.952 6.845)"><rect class="c" width="83.79" height="1.909"/></g></g><g transform="translate(2.082)"><g transform="translate(0.946 44.758)"><path class="e" d="M79.4,183.637c11.519,0,33.832-.592,33.832-.592l-2.37-20.931a23.421,23.421,0,0,0-14.612-18.167L91.774,142.3c-2.04-.79-3.357-.922-3.357-4.213v-2.83a10.264,10.264,0,0,1-6.977,2.764A11.225,11.225,0,0,1,73.87,134.6l.263,3.489c0,2.172-1.316,3.357-3.357,4.213L66.3,143.947a23.421,23.421,0,0,0-14.612,18.167L48.2,183.571C56.888,183.9,67.815,183.637,79.4,183.637Z" transform="translate(-48.2 -134.6)"/></g><g transform="translate(34.449 53.183)"><path class="e" d="M105.88,154.443l-1.646,3.883L99.1,152.534l9.083-5.134Z" transform="translate(-99.1 -147.4)"/></g><g transform="translate(24.839 51.604)"><path class="e" d="M86.014,150.463l2.633,7.043,5.463-5.792L84.5,145Z" transform="translate(-84.5 -145)"/></g><g transform="translate(27.604 56.935)"><path class="f" d="M93.637,153.1,88.7,157.971l1.316,2.37,5.529-5.858Z" transform="translate(-88.7 -153.1)"/></g><g transform="translate(29.381 61.872)"><path class="b" d="M98.114,166.063H94.559a1,1,0,0,1-.79-.461l-2.37-4.147,1.58-.856,2.106,3.686h2.5l2.04-3.686,1.58.856L98.9,165.6A.859.859,0,0,1,98.114,166.063Z" transform="translate(-91.4 -160.6)"/></g><g transform="translate(30.217 65.623)"><rect class="b" width="7.833" height="1.777" transform="matrix(0.19, -0.982, 0.982, 0.19, 0, 7.69)"/></g><g transform="translate(35.226 65.594)"><rect class="b" width="1.777" height="7.833" transform="matrix(0.988, -0.157, 0.157, 0.988, 0, 0.278)"/></g><g transform="translate(13.078 74.158)"><rect class="c" width="19.022" height="1.777" transform="translate(0 18.96) rotate(-85.362)"/></g><g transform="translate(51.991 74.218)"><rect class="c" width="1.777" height="19.549" transform="translate(0 0.066) rotate(-2.116)"/></g><g transform="translate(19.376 8.228)"><path class="e" d="M76.595,88.381A19.958,19.958,0,0,0,76.2,91.54v13.427c.2,7.306,7.833,13.493,7.833,13.493,1.975,1.975,5.134,2.172,7.9,2.172a12.389,12.389,0,0,0,8.359-3.225l4.278-4.607a11.752,11.752,0,0,0,2.83-7.767V91.54c0-5.99-2.172-10.992-7.7-12.44C99.7,79.1,77.911,88.644,76.595,88.381Z" transform="translate(-76.2 -79.1)"/></g><g transform="translate(16.35 0.856)"><path class="e" d="M107.868,92.122c0-4.213,1.843-19.878-13.362-23.564a24.825,24.825,0,0,0-4.739-.658h0a20.507,20.507,0,0,0-4.739.658C69.889,72.244,71.667,87.91,71.667,92.122h2.37s1.777-4.015,2.238-4.739a31.535,31.535,0,0,0,17.969-6.516,24.586,24.586,0,0,0,6.056,5.858,26.294,26.294,0,0,0,5.463,2.9v2.5Z" transform="translate(-71.602 -67.9)"/></g><g transform="translate(27.209 47.589)"><path class="g" d="M102.91,141.6v-2.37A10.834,10.834,0,0,1,88.1,138.9h0v1.711l.658.658c2.04,2.04,4.344,1.909,7.24,1.909C98.236,143.178,101,142.915,102.91,141.6Z" transform="translate(-88.1 -138.9)"/></g><g transform="translate(31.882 27.908)"><path class="e" d="M97.57,115.911l-2.37.527L96.516,109l.987.132Z" transform="translate(-95.2 -109)"/></g><g transform="translate(49.456 25.078)"><path class="e" d="M122.361,104.7h1.316a2.6,2.6,0,0,1,2.567,3.094l-.527,2.764a3.84,3.84,0,0,1-2.172,2.83l-1.646.922Z" transform="translate(-121.9 -104.7)"/></g><g transform="translate(49.851 24.222)"><path class="c" d="M124.08,113.8l-.724-1.646a3.017,3.017,0,0,0,1.711-2.172l.527-2.764a1.884,1.884,0,0,0-.395-1.448,1.657,1.657,0,0,0-1.316-.592H122.5V103.4h1.382a3.454,3.454,0,0,1,3.423,4.147l-.527,2.764A4.867,4.867,0,0,1,124.08,113.8Z" transform="translate(-122.5 -103.4)"/></g><g transform="translate(15.242 25.078)"><path class="e" d="M73.856,104.7H72.54a2.6,2.6,0,0,0-2.567,3.094l.527,2.764a3.84,3.84,0,0,0,2.172,2.83l1.646.922Z" transform="translate(-69.92 -104.7)"/></g><g transform="translate(14.31 24.156)"><path class="c" d="M72.845,114.292l-1.053-.592a5.034,5.034,0,0,1-2.7-3.489l-.527-2.764a3.454,3.454,0,0,1,3.423-4.147h1.448v1.777H72.121a1.657,1.657,0,0,0-1.316.592,1.884,1.884,0,0,0-.395,1.448l.527,2.764a2.9,2.9,0,0,0,1.711,2.172h.066l1.053.592Z" transform="translate(-68.503 -103.3)"/></g><g transform="translate(18.191 13.164)"><path class="c" d="M107.705,107.926h-1.777V96.6a24.819,24.819,0,0,1-4.8-2.633A27.559,27.559,0,0,1,95.4,88.64a34.789,34.789,0,0,1-7.372,4.015,33.907,33.907,0,0,1-9.939,2.106c-.263.461-.592,1.185-.921,1.843a23.9,23.9,0,0,1-1.251,2.435L74.4,98.053c.2-.329.724-1.316,1.119-2.172a23.9,23.9,0,0,1,1.251-2.435.756.756,0,0,1,.724-.395,31.741,31.741,0,0,0,9.873-1.975A29.96,29.96,0,0,0,95,86.8a1.27,1.27,0,0,1,.658-.2.691.691,0,0,1,.592.329,26.564,26.564,0,0,0,5.858,5.661,21.529,21.529,0,0,0,5,2.633.937.937,0,0,1,.592.856Z" transform="translate(-74.4 -86.6)"/></g><g transform="translate(18.455 24.288)"><rect class="c" width="1.777" height="10.136"/></g><g transform="translate(15.589)"><path class="c" d="M108.263,91.546h-1.777V90.3c.132-5.4.527-18.1-12.572-21.26a17.928,17.928,0,0,0-4.542-.592,21.445,21.445,0,0,0-4.476.592c-13.164,3.159-12.769,15.8-12.638,21.26v1.251H70.482V90.3c-.132-5.332-.592-19.549,13.954-23.037a21.114,21.114,0,0,1,4.871-.658h.066a22.156,22.156,0,0,1,4.937.658c14.546,3.554,14.086,17.706,13.954,23.037Z" transform="translate(-70.447 -66.6)"/></g><g transform="translate(31.487 33.7)"><path class="h" d="M99.142,120.3a2.183,2.183,0,0,0-1.646-.658,2.6,2.6,0,0,0-1.646.658L94.6,119.051a3.979,3.979,0,0,1,5.792,0Z" transform="translate(-94.6 -117.8)"/></g><g transform="translate(18.455 33.569)"><path class="c" d="M91.321,136.556A16.531,16.531,0,0,1,74.8,120.035v-1.514a.913.913,0,0,1,.461-.79,1.124,1.124,0,0,1,.922,0l8.1,5.134a11.422,11.422,0,0,1,13.428,0l8.359-4.147v-.2a.921.921,0,0,1,1.843,0v1.58A16.66,16.66,0,0,1,91.321,136.556ZM76.577,120.1a14.72,14.72,0,0,0,29.422.592l-8.03,4.015a.822.822,0,0,1-1.053-.2,9.3,9.3,0,0,0-6.385-2.106c-2.764,0-5.661,2.172-5.726,2.172a.907.907,0,0,1-.987.066Z" transform="translate(-74.8 -117.6)"/></g><g transform="translate(19.376 24.222)"><rect class="b" width="31.199" height="1.777"/></g><g transform="translate(36.424 25.934)"><path class="b" d="M110,112.319h-5.463a2.43,2.43,0,0,1-2.435-2.435V106h1.777v3.883a.66.66,0,0,0,.658.658H110a.66.66,0,0,0,.658-.658V106h1.777v3.883A2.43,2.43,0,0,1,110,112.319Z" transform="translate(-102.1 -106)"/></g><g transform="translate(40.439 27.447)"><circle class="b" cx="1.185" cy="1.185" r="1.185"/></g><g transform="translate(39.649 26.526)"><rect class="b" width="4.673" height="1.777"/></g><g transform="translate(21.614 25.934)"><path class="b" d="M87.5,112.319H82.035a2.43,2.43,0,0,1-2.435-2.435V106h1.777v3.883a.66.66,0,0,0,.658.658H87.5a.66.66,0,0,0,.658-.658V106h1.777v3.883A2.473,2.473,0,0,1,87.5,112.319Z" transform="translate(-79.6 -106)"/></g><g transform="translate(26.353 27.447)"><circle class="b" cx="1.185" cy="1.185" r="1.185"/></g><g transform="translate(24.839 26.526)"><rect class="b" width="4.673" height="1.777"/></g><g transform="translate(28.13 58.515)"><path class="b" d="M90.685,161.753,89.5,160.371l5.463-4.673a.987.987,0,0,1,1.185,0l5.463,4.673-1.185,1.382-4.871-4.213Z" transform="translate(-89.5 -155.5)"/></g><g transform="translate(23.984 51.406)"><path class="b" d="M93.4,178.6a.909.909,0,0,1-.856-.658L83.2,145.161l1.711-.461L93.4,174.517l8.491-29.027,1.711.527L94.258,177.94A.909.909,0,0,1,93.4,178.6Z" transform="translate(-83.2 -144.7)"/></g><g transform="translate(0 48.444)"><path class="c" d="M112.806,186.472l-65.163-.132a.81.81,0,0,1-.658-.329.743.743,0,0,1-.2-.724l3.028-18.759.461-2.7A24.449,24.449,0,0,1,65.415,145l6.253-2.238L71.8,140.2l1.777.066-.2,3.159a.922.922,0,0,1-.592.79l-6.845,2.435a22.7,22.7,0,0,0-14.02,17.443l-.461,2.7-2.9,17.706,63.122.066-2.106-17.772-.461-2.7A22.55,22.55,0,0,0,95.034,146.65l-5.99-2.435a.855.855,0,0,1-.527-.79v-2.37h1.777v1.777l5.463,2.238A24.424,24.424,0,0,1,110.9,163.9l.461,2.764,2.238,18.825a1.327,1.327,0,0,1-.2.724A.723.723,0,0,1,112.806,186.472Z" transform="translate(-46.763 -140.2)"/></g><g transform="translate(25.037 50.946)"><path class="b" d="M93.949,152.623a1.062,1.062,0,0,1-.592-.2L84.8,145.382,85.919,144l8.03,6.582,8.293-5.858,1.053,1.448-8.82,6.253A.747.747,0,0,1,93.949,152.623Z" transform="translate(-84.8 -144)"/></g><g transform="translate(16.924 54.566)"><path class="c" d="M85.787,181.95,77.23,168.062a.706.706,0,0,1-.066-.724l1.382-4.871-5.726-4.344a.755.755,0,0,1-.329-.79l.79-7.833,1.777.2-.79,7.372,5.858,4.41a.907.907,0,0,1,.329.987l-1.448,5.068,8.359,13.559Z" transform="translate(-72.475 -149.5)"/></g><g transform="translate(36.555 54.566)"><path class="c" d="M103.814,181.95l-1.514-.921,8.359-13.559-1.448-5.068a.872.872,0,0,1,.329-.987L115.4,157l-.724-7.306,1.777-.2.79,7.833a1.09,1.09,0,0,1-.329.79l-5.726,4.344,1.382,4.871a.906.906,0,0,1-.066.724Z" transform="translate(-102.3 -149.5)"/></g><g transform="translate(31.553 42.191)"><path class="c" d="M97.662,132.806a11.449,11.449,0,0,1-2.962-.395l.592-1.711a10.34,10.34,0,0,0,4.937,0l.461,1.711A13.66,13.66,0,0,1,97.662,132.806Z" transform="translate(-94.7 -130.7)"/></g></g></g><g transform="translate(97.701 89.122)"><rect class="e" width="32.252" height="22.445" transform="translate(0.856 0.856)"/><path class="b" d="M180.542,146.056H148.356a.83.83,0,0,1-.856-.856V122.756a.83.83,0,0,1,.856-.856h32.252a.83.83,0,0,1,.856.856V145.2A.983.983,0,0,1,180.542,146.056Zm-31.462-1.711h30.607V123.611H149.08Z" transform="translate(-147.5 -121.9)"/></g><g transform="translate(110.668 94.572)"><path class="e" d="M168.5,132.425v9.215a.812.812,0,0,0,1.185.658l6.78-4.607a.739.739,0,0,0,0-1.251l-6.78-4.607A.75.75,0,0,0,168.5,132.425Z" transform="translate(-167.644 -130.7)"/><path class="c" d="M168.78,142.7a1.327,1.327,0,0,1-.724-.2,1.715,1.715,0,0,1-.856-1.448v-9.215a1.715,1.715,0,0,1,.856-1.448,1.393,1.393,0,0,1,1.646.132l6.78,4.607a1.788,1.788,0,0,1,.724,1.316,1.6,1.6,0,0,1-.724,1.316l-6.78,4.607A1.145,1.145,0,0,1,168.78,142.7Zm0-10.663v9.017l6.582-4.542Zm0-.132h0Z" transform="translate(-167.2 -130.18)"/></g><g transform="translate(106.587 123.152)"><rect class="b" width="24.617" height="1.909"/></g><g transform="translate(106.587 129.076)"><rect class="b" width="24.617" height="1.909" transform="translate(0 0)"/></g></g></svg>