<svg xmlns="http://www.w3.org/2000/svg" width="155.442" height="141.12" viewBox="0 0 155.442 141.12"><defs><style>.a{fill:#c9c9c9;}.b{fill:#282828;}.c{fill:#009e4f;}.d{fill:#fff;}.e{fill:#ffc38d;}.f{fill:#2a347c;}</style></defs><g transform="translate(-1.597 -12.67)"><g transform="translate(1.597 12.67)"><g transform="translate(9.569 1.277)"><g transform="translate(8.27)"><path class="a" d="M66.656,28.08H31.642V14.821H66.656l13.426,6.63ZM32.787,26.936h33.6L77.5,21.451,66.389,15.966h-33.6Z" transform="translate(-31.642 -14.821)"/></g><g transform="translate(48.332 3.725)"><rect class="a" width="1.145" height="5.81"/></g><g transform="translate(38.28 0.09)"><path class="a" d="M83.412,28.051l-.788-.83,2.793-2.65-3.231-3.062,3.231-3.06L82.624,15.8l.787-.831,3.669,3.476-3.231,3.06,3.23,3.061Z" transform="translate(-82.186 -14.973)"/></g><path class="a" d="M24.343,28.08a6.63,6.63,0,1,1,0-13.259v1.145a5.485,5.485,0,0,0,0,10.971Z" transform="translate(-17.713 -14.821)"/><g transform="translate(11.685 0.572)"><rect class="a" width="1.145" height="12.115"/></g><g transform="translate(12.141 6.054)"><rect class="a" width="26.971" height="1.145"/></g></g><g transform="translate(90.043)"><g transform="translate(29.09 13.419)"><rect class="a" width="1.145" height="35.96"/></g><g transform="translate(29.09 2.399)"><rect class="a" width="1.145" height="11.02"/></g><g transform="translate(10.915 28.437)"><path class="a" d="M174.812,67.334a7.143,7.143,0,0,1-3.179-.746l.509-1.025a5.992,5.992,0,0,0,8.65-5l1.142.071a7.135,7.135,0,0,1-7.123,6.7Z" transform="translate(-171.633 -60.564)"/></g><g transform="translate(19.258 31.97)"><path class="a" d="M189.187,71.677l-1.129-.188a3.406,3.406,0,0,0-2.374-3.88l.333-1.095A4.526,4.526,0,0,1,189.187,71.677Z" transform="translate(-185.685 -66.514)"/></g><g transform="translate(11.968 22.61)"><path class="a" d="M174.782,56.8a4.526,4.526,0,0,1-.381-6.046l.91.7a3.43,3.43,0,0,0,.281,4.541Z" transform="translate(-173.407 -50.751)"/></g><g transform="translate(17.178 18.317)"><path class="a" d="M185.36,48.337a4.131,4.131,0,0,0-3.179-3.695l.224-1.122a5.224,5.224,0,0,1,4.1,4.731Z" transform="translate(-182.181 -43.52)"/></g><g transform="translate(14.639 17.165)"><path class="a" d="M181.691,43.951a4.771,4.771,0,0,1-3.786-1.63l.872-.742c1.989,2.333,5.855.593,5.893.575l.48,1.039A9.1,9.1,0,0,1,181.691,43.951Z" transform="translate(-177.905 -41.579)"/></g><g transform="translate(4.559)"><path class="a" d="M180.608,64.283a8.431,8.431,0,0,1-8.2-6.439c-.192.014-.373.021-.551.021a8.436,8.436,0,0,1-7.468-12.383,9.678,9.678,0,0,1-3.46-7.442,9.789,9.789,0,0,1,6.409-9.16,8.367,8.367,0,0,1-1.158-4.259,8.458,8.458,0,0,1,8.449-8.448,8.184,8.184,0,0,1,1.967.246,5.1,5.1,0,0,1,10,1.038l-1.142.069a3.951,3.951,0,0,0-7.857-.309l-.094.676-.65-.211a7.229,7.229,0,0,0-2.225-.366,7.295,7.295,0,0,0-5.938,11.545l.476.665-.788.22a8.6,8.6,0,0,0-2.9,15.139l.408.312-.267.44a7.291,7.291,0,0,0,6.241,11.082,7.157,7.157,0,0,0,.932-.066l.541-.069.1.537a7.288,7.288,0,0,0,7.184,6.016,10.634,10.634,0,0,0,5.782-2.146l.686.916A11.683,11.683,0,0,1,180.608,64.283Z" transform="translate(-160.928 -12.67)"/></g><g transform="translate(15.536 38.218)"><path class="a" d="M179.727,83.334a10.522,10.522,0,0,1,.352-6.3l1.085.364a9.6,9.6,0,0,0-.352,5.569Z" transform="translate(-179.416 -77.037)"/></g><g transform="translate(28.795 0.145)"><g transform="translate(9.21 18.901)"><path class="a" d="M218.4,49.566l-1.141-.087a5.224,5.224,0,0,1,4.1-4.731l.227,1.122A4.093,4.093,0,0,0,218.4,49.566Z" transform="translate(-217.259 -44.748)"/></g><g transform="translate(8.824 17.748)"><path class="a" d="M220.069,45.179a9.1,9.1,0,0,1-3.46-.758l.482-1.038-.241.519.24-.52c.039.017,3.9,1.758,5.893-.575l.872.742A4.772,4.772,0,0,1,220.069,45.179Z" transform="translate(-216.609 -42.807)"/></g><g transform="translate(0 48.323)"><path class="a" d="M208.217,97.592a11.684,11.684,0,0,1-6.469-2.376l.687-.916a10.634,10.634,0,0,0,5.782,2.146Z" transform="translate(-201.748 -94.301)"/></g><g transform="translate(0.482)"><path class="a" d="M226.939,36.712a8.657,8.657,0,0,0-6.161-6.72l-.788-.22.476-.665a7.274,7.274,0,0,0-8.163-11.18l-.65.211-.094-.676a3.951,3.951,0,0,0-7.857.309l-1.142-.069a5.1,5.1,0,0,1,5.4-4.777,5.112,5.112,0,0,1,4.605,3.739,8.181,8.181,0,0,1,1.967-.246,8.458,8.458,0,0,1,8.448,8.448,8.366,8.366,0,0,1-1.158,4.259,9.815,9.815,0,0,1,6.247,7.379Z" transform="translate(-202.559 -12.914)"/></g></g><g transform="translate(29.253 8.483)"><path class="a" d="M203.573,31.525l-1.054-.446a7.95,7.95,0,0,1,5.187-4.121l.308,1.1A6.809,6.809,0,0,0,203.573,31.525Z" transform="translate(-202.519 -26.957)"/></g><g transform="translate(24.902 39.05)"><path class="a" d="M195.455,83.355l-.263-1.114.132.557-.134-.556a6.81,6.81,0,0,0,4.156-3.8l1.035.487A7.95,7.95,0,0,1,195.455,83.355Z" transform="translate(-195.19 -78.439)"/></g><g transform="translate(33.494 25.658)"><path class="a" d="M226.693,87.788l-2.123-3.363a12.447,12.447,0,0,1-2.192-.38L219.247,86.5,215.1,83.878l.876-3.88a12.618,12.618,0,0,1-1.283-1.817l-3.949-.477-1.08-4.789,3.364-2.124a12.776,12.776,0,0,1,.381-2.191l-2.456-3.131,2.623-4.149,3.882.876a12.5,12.5,0,0,1,1.817-1.282l.476-3.95,4.788-1.079,2.126,3.363a12.561,12.561,0,0,1,2.191.379l3.131-2.458,4.149,2.623-.878,3.882a12.544,12.544,0,0,1,1.283,1.816l3.95.475,1.08,4.79L238.2,72.88a12.355,12.355,0,0,1-.381,2.191l2.458,3.13-2.622,4.15-3.882-.876a12.5,12.5,0,0,1-1.816,1.282l-.479,3.95Zm-4.561-5,.283.083a11.312,11.312,0,0,0,2.517.436l.294.017,2,3.173,3.211-.723.452-3.728.258-.141a11.394,11.394,0,0,0,2.088-1.475l.22-.2,3.664.827,1.759-2.785-2.32-2.954.083-.283a11.238,11.238,0,0,0,.438-2.517l.017-.294,3.174-2.006-.724-3.213-3.726-.448-.142-.258a11.386,11.386,0,0,0-1.475-2.088l-.2-.22.828-3.664-2.783-1.759L229.1,60.887l-.282-.082a11.435,11.435,0,0,0-2.519-.436l-.293-.017L224,57.178l-3.212.723-.448,3.728-.259.141a11.369,11.369,0,0,0-2.088,1.474l-.22.2-3.663-.826L212.35,65.4l2.317,2.954-.082.282a11.554,11.554,0,0,0-.438,2.522l-.018.293-3.172,2,.725,3.213,3.725.449.141.257a11.451,11.451,0,0,0,1.477,2.089l.2.22-.826,3.662,2.783,1.76Zm3.469-4.789a6.178,6.178,0,1,1,1.367-.153A6.2,6.2,0,0,1,225.6,77.994Zm.024-11.172a5.018,5.018,0,0,0-4.9,6.116,5.01,5.01,0,1,0,4.9-6.116Z" transform="translate(-209.662 -55.884)"/></g><g transform="translate(0 37.341)"><path class="a" d="M176.411,95.907c-.5-.113-1.007-.24-1.507-.379l.305-1.1c.483.133.972.256,1.455.366Zm-3-.831c-.492-.163-.984-.338-1.464-.522l.411-1.069c.462.178.937.347,1.412.5Zm-2.9-1.113c-.474-.209-.948-.431-1.407-.66l.511-1.024c.443.221.9.435,1.357.636Zm-2.78-1.386c-.451-.252-.9-.518-1.338-.791l.606-.971c.422.263.856.52,1.29.763ZM165.1,90.931c-.423-.292-.845-.6-1.256-.913l.7-.91c.4.3.8.6,1.212.882Zm-2.467-1.886c-.394-.332-.786-.678-1.164-1.028l.778-.84c.365.338.743.672,1.123.993Zm-2.278-2.111c-.36-.367-.717-.749-1.061-1.134l.854-.762c.332.372.676.74,1.024,1.094Zm-2.067-2.316c-.325-.4-.645-.814-.949-1.228l.922-.678c.294.4.6.8.916,1.186Zm-1.839-2.5c-.284-.428-.563-.87-.828-1.313l.982-.588c.256.428.525.854.8,1.268Zm-1.593-2.664c-.243-.454-.479-.92-.7-1.386l1.034-.491c.213.448.441.9.675,1.337Zm-1.332-2.8q-.14-.333-.272-.67l1.066-.417q.126.325.261.647Z" transform="translate(-153.25 -75.561)"/></g><g transform="translate(23.161 56.571)"><path class="a" d="M199.5,109.87a32.8,32.8,0,0,1-7.238-.806l.253-1.116a31.938,31.938,0,0,0,13.716.056l.243,1.119A32.887,32.887,0,0,1,199.5,109.87Z" transform="translate(-192.259 -107.948)"/></g></g><g transform="translate(0 50.239)"><g transform="translate(0.073)"><path class="a" d="M2.865,166.368H1.72V97.283l35.69.23L37.4,98.657,2.865,98.435Z" transform="translate(-1.72 -97.283)"/></g><g transform="translate(0 67.61)"><path class="a" d="M37.356,224.976H8.366a6.777,6.777,0,0,1-6.769-6.77v-.281a6.777,6.777,0,0,1,6.769-6.77h28.99V212.3H8.366a5.631,5.631,0,0,0-5.625,5.625v.281a5.631,5.631,0,0,0,5.625,5.625h28.99Z" transform="translate(-1.597 -211.155)"/></g><g transform="translate(5.989 0.614)"><rect class="a" width="1.145" height="54.47" transform="translate(0)"/></g><g transform="translate(5.989 57.62)"><rect class="a" width="1.145" height="4.225" transform="translate(0)"/></g><g transform="translate(13.594 9.3)"><path class="a" d="M47.883,131.838H24.493V112.946h23.39v1.145H25.638v16.6H47.883Z" transform="translate(-24.493 -112.946)"/></g><g transform="translate(22.195 34.652)"><rect class="a" width="14.055" height="1.145"/></g><g transform="translate(22.195 42.258)"><path class="a" d="M52.715,169.6H51.188v-1.145h1.527Zm-3.052,0H48.136v-1.145h1.527Zm-3.052,0H45.083v-1.145H46.61Zm-3.052,0H42.031v-1.145h1.526Zm-3.052,0H38.979v-1.145H40.5Z" transform="translate(-38.979 -168.455)"/></g><g transform="translate(22.195 50.709)"><rect class="a" width="13.564" height="1.145"/></g><g transform="translate(6.984 73.526)"><rect class="a" width="28.776" height="1.145" transform="translate(0)"/></g></g><g transform="translate(118.617 63.681)"><g transform="translate(12.133 24.818)"><circle class="a" cx="1.13" cy="1.13" r="1.13" transform="matrix(0.981, -0.193, 0.193, 0.981, 0, 0.435)"/></g><g transform="translate(7.304 19.697)"><path class="a" d="M225.758,163.275h-1.145v-4.135a4.9,4.9,0,1,0-9.79,0v4.024h-1.145v-4.024a6.04,6.04,0,1,1,12.08,0Z" transform="translate(-213.678 -153.099)"/></g><g transform="translate(11.448 31.302)"><rect class="a" width="3.572" height="1.145"/></g><g transform="translate(9.824 14.43)"><path class="a" d="M223.6,150.523l-.7-.9a2.372,2.372,0,1,0-2.915,0l-.7.9a3.516,3.516,0,1,1,4.32,0Z" transform="translate(-217.922 -144.228)"/></g><g transform="translate(6.241 10.845)"><path class="a" d="M214.075,150.418a7.1,7.1,0,1,1,9.937-.1l-.809-.809a5.958,5.958,0,1,0-8.336.087Z" transform="translate(-211.888 -138.189)"/></g><g transform="translate(9.826)"><path class="a" d="M219.071,132.681h-1.145v-9.44a3.316,3.316,0,1,1,6.632,0V132.1h-1.145V123.24a2.171,2.171,0,1,0-4.342,0Z" transform="translate(-217.926 -119.924)"/></g><g transform="translate(14.175 29.402)"><path class="a" d="M241.126,209.275a2.986,2.986,0,0,1-2.8-1.962l-13.07-35.91,5.388-1.961,13.284,35.828a2.982,2.982,0,0,1-2.8,4Zm-14.408-37.187L239.4,206.922a1.837,1.837,0,1,0,3.451-1.257l-12.887-34.758Z" transform="translate(-225.251 -169.443)"/></g><g transform="translate(0 29.402)"><path class="a" d="M202.452,201.918l-1.076-.391,10.754-29.545-2.951-1.074-6.55,17.655-1.073-.4,6.946-18.721,5.1,1.854Z" transform="translate(-201.376 -169.443)"/></g><g transform="translate(30.813 68.656)"><rect class="a" width="1.144" height="8.878" transform="translate(0 0.363) rotate(-18.487)"/></g><g transform="translate(6.57 57.051)"><path class="a" d="M218.714,217.535c-2.1,0-4.211-.1-6.272-.3l.11-1.139a64.65,64.65,0,0,0,13.131-.082l.125,1.138A65.222,65.222,0,0,1,218.714,217.535Z" transform="translate(-212.442 -216.012)"/></g><g transform="translate(1.062 48.713)"><path class="a" d="M214.945,207.141a59.146,59.146,0,0,1-11.78-1.176l.229-1.122A57.963,57.963,0,0,0,214.945,206a55.865,55.865,0,0,0,21.113-4.029l.43,1.06A57,57,0,0,1,214.945,207.141Z" transform="translate(-203.165 -201.968)"/></g></g><g transform="translate(0.53 17.48)"><g transform="translate(44.135 4.88)"><path class="a" d="M77.967,60.345H76.822A7.574,7.574,0,0,1,79.157,54.7c4.951-4.807,16.352-4.471,22.477-4.291a26.659,26.659,0,0,0,3.092.008l.181,1.13a24.531,24.531,0,0,1-3.307.006c-5.531-.164-17.043-.5-21.647,3.968A6.387,6.387,0,0,0,77.967,60.345Z" transform="translate(-76.822 -50.329)"/></g><g transform="translate(0 13.827)"><path class="a" d="M41.641,73.888a7.836,7.836,0,0,1-6.366-3.262H2.489V65.4H39.021v.643a2.62,2.62,0,0,0,5.24,0V65.4H81.327v4.656H80.182V66.543H45.372a3.765,3.765,0,0,1-7.462,0H3.633v2.938H35.882l.17.257a6.7,6.7,0,0,0,11.178,0l.17-.257H76.96v1.145H48.006A7.836,7.836,0,0,1,41.641,73.888Z" transform="translate(-2.489 -65.398)"/></g><g transform="translate(38.58 0)"><path class="a" d="M101.405,56.386h-1.145v-13c-3.543-.169-23.6-.847-29.851,5.018a5.163,5.163,0,0,0-1.8,3.9H67.466a6.331,6.331,0,0,1,2.161-4.737c7.191-6.747,30.265-5.359,31.243-5.3l.536.034Z" transform="translate(-67.466 -42.11)"/></g><g transform="translate(5.031 0.004)"><path class="a" d="M12.107,56.921H10.962V42.132l.563-.009c1.025-.012,25.168-.335,32.169,6.551a5.915,5.915,0,0,1,1.936,4.3l.026,2.4-1.145.012-.026-2.408a4.756,4.756,0,0,0-1.594-3.489C36.8,43.5,15.821,43.259,12.107,43.263Z" transform="translate(-10.962 -42.117)"/></g><g transform="translate(5.603 9.692)"><rect class="a" width="5.378" height="1.145"/></g><g transform="translate(6.143 4.803)"><path class="a" d="M40.92,60.216H39.775A6.384,6.384,0,0,0,37.788,55.4c-4.6-4.47-16.115-4.131-21.646-3.968a24.859,24.859,0,0,1-3.307-.006l.181-1.13a26.661,26.661,0,0,0,3.092-.008c6.125-.18,17.527-.517,22.477,4.29A7.576,7.576,0,0,1,40.92,60.216Z" transform="translate(-12.835 -50.2)"/></g><g transform="translate(65.658 9.692)"><rect class="a" width="5.378" height="1.145"/></g><g transform="translate(14.234 9.035)"><path class="a" d="M26.463,58.392a1.064,1.064,0,1,0,1.063-1.065A1.063,1.063,0,0,0,26.463,58.392Z" transform="translate(-26.463 -57.327)"/></g></g></g><g transform="translate(6.717 50.488)"><g transform="translate(0)"><g transform="translate(10.728 97.969)"><path class="b" d="M147.027,246.022H32.943a4.654,4.654,0,0,1-4.654-4.654H151.68A4.654,4.654,0,0,1,147.027,246.022Z" transform="translate(-28.289 -241.368)"/></g><g transform="translate(0 97.115)"><rect class="c" width="144.848" height="1.71"/></g><g transform="translate(24.528)"><g transform="translate(0.578 1.334)"><rect class="d" width="95.744" height="65.478"/></g><g transform="translate(0.578 8.274)"><rect class="d" width="95.744" height="50.177"/></g><g transform="translate(38.567 66.811)"><path class="d" d="M137.526,206.141H116.487s3.92-1.711,3.92-7.47a15.3,15.3,0,0,0-3.92-9.78h21.039s-3.92,5.012-3.92,9.78A9.742,9.742,0,0,0,137.526,206.141Z" transform="translate(-116.487 -188.891)"/></g><g transform="translate(27.786 84.061)"><path class="d" d="M7.971,0H34.392a7.971,7.971,0,0,1,7.971,7.971v0a0,0,0,0,1,0,0H0a0,0,0,0,1,0,0v0A7.971,7.971,0,0,1,7.971,0Z"/></g><path class="c" d="M147.573,143.883H52.386a.854.854,0,0,1-.855-.855V77.22a.854.854,0,0,1,.855-.855h95.187a.854.854,0,0,1,.855.855v65.808A.854.854,0,0,1,147.573,143.883Zm-94.332-1.71h93.477v-64.1H53.241Z" transform="translate(-51.531 -76.365)"/><g transform="translate(0.855 7.051)"><rect class="c" width="95.187" height="1.71"/></g><g transform="translate(0.855 57.582)"><rect class="c" width="95.187" height="1.71"/></g><g transform="translate(27.028 83.436)"><path class="c" d="M140.213,225.651H97.908a.855.855,0,0,1-.855-.855v-2.811a5.1,5.1,0,0,1,5.094-5.094h33.827a5.1,5.1,0,0,1,5.094,5.094V224.8A.855.855,0,0,1,140.213,225.651Zm-41.45-1.71h40.6v-1.956a3.388,3.388,0,0,0-3.384-3.384H102.147a3.388,3.388,0,0,0-3.384,3.384Z" transform="translate(-97.053 -216.89)"/></g><g transform="translate(38.567 66.811)"><path class="e" d="M120.285,195.753h13.477a11.885,11.885,0,0,1,3.765-6.862H116.487S119.638,190.73,120.285,195.753Z" transform="translate(-116.487 -188.891)"/></g><g transform="translate(37.497 65.808)"><path class="c" d="M137.01,206.539H115.54a.855.855,0,0,1-.342-1.639c.137-.062,3.488-1.638,3.488-6.839a14.975,14.975,0,0,0-3.761-9.41.856.856,0,0,1,.615-1.449h21.47a.856.856,0,0,1,.675,1.38c-.039.049-3.821,4.97-3.821,9.479a9.09,9.09,0,0,0,3.631,6.919.855.855,0,0,1-.485,1.559Zm-18.986-1.71H134.83a10.2,10.2,0,0,1-2.677-6.768c0-3.587,1.984-7.228,3.22-9.15H117.323a16.093,16.093,0,0,1,3.073,9.15A9.677,9.677,0,0,1,118.023,204.829Z" transform="translate(-114.685 -187.201)"/></g><g transform="translate(40.81 47.006)"><rect class="f" width="3.526" height="1.71"/></g><g transform="translate(33.759 47.006)"><rect class="f" width="3.525" height="1.71"/></g><g transform="translate(26.708 47.006)"><rect class="f" width="3.526" height="1.71"/></g><g transform="translate(19.657 47.006)"><rect class="f" width="3.526" height="1.71"/></g><g transform="translate(12.606 47.006)"><rect class="f" width="3.526" height="1.71"/></g><g transform="translate(6.098 15.383)"><g transform="translate(0.572 6.64)"><path class="d" d="M140.577,113.457h4.906v52.855H110.739a8.064,8.064,0,0,1-13.2,0H62.765V113.457h5.482v47.649H99.489a4.748,4.748,0,0,0,4.634,3.6,4.8,4.8,0,0,0,4.667-3.6h31.722Z" transform="translate(-62.765 -113.457)"/></g><g transform="translate(5.597 0.94)"><path class="d" d="M114.023,103.857a6.462,6.462,0,0,0-6.462,6.462,6.462,6.462,0,0,0-6.462-6.462H71.227v48.472H101.1a6.462,6.462,0,0,1,6.462,6.462,6.462,6.462,0,0,1,6.462-6.462H143.9V103.857Z" transform="translate(-71.227 -103.857)"/></g><g transform="translate(49.597 8.812)"><rect class="d" width="22.009" height="11.52"/></g><g transform="translate(5.597 48.92)"><path class="d" d="M143.951,189.885H112.228s-.326,3.524-4.546,3.524-4.755-3.524-4.755-3.524h-31.7v-5.22H101.1l6.458,3.153,6.466-3.153h29.928Z" transform="translate(-71.227 -184.665)"/></g><g transform="translate(41.987 1.379)"><path class="d" d="M135.046,155.128l-2.529,2.228V107.738l2.529-3.142Z" transform="translate(-132.517 -104.596)"/></g><g transform="translate(0 5.399)"><path class="c" d="M103.94,169.753a8.808,8.808,0,0,1-7.023-3.453H62.656a.855.855,0,0,1-.855-.855V112.222a.855.855,0,0,1,.855-.855h5.4v1.71H63.511V164.59H97.355a.856.856,0,0,1,.707.373,7.149,7.149,0,0,0,11.756,0,.856.856,0,0,1,.707-.373h33.811V113.077h-3.773v-1.71h4.628a.855.855,0,0,1,.855.855v53.223a.855.855,0,0,1-.855.855H110.962A8.806,8.806,0,0,1,103.94,169.753Z" transform="translate(-61.801 -111.367)"/></g><g transform="translate(4.628 49.45)"><path class="c" d="M106.693,195.242a5.118,5.118,0,0,1-4.242-2.2l-.845-1.234H70.451a.854.854,0,0,1-.855-.855v-5.4h1.71V190.1h30.75a.854.854,0,0,1,.705.372l1.1,1.606a3.487,3.487,0,0,0,5.663,0l1.1-1.606a.856.856,0,0,1,.705-.372H142.1v-4.544h1.71v5.4a.854.854,0,0,1-.855.855H111.78l-.845,1.234A5.12,5.12,0,0,1,106.693,195.242Z" transform="translate(-69.596 -185.558)"/></g><g transform="translate(4.628)"><path class="b" d="M106.9,159.04a.855.855,0,0,1-.855-.855,5.616,5.616,0,0,0-.092-1.016.851.851,0,0,1-.1-.406v-.045a5.618,5.618,0,0,0-5.413-4.141H70.451a.854.854,0,0,1-.855-.855V103.128a.855.855,0,0,1,.855-.855h29.791a7.324,7.324,0,0,1,6.462,3.887,7.323,7.323,0,0,1,6.462-3.887h29.79a.855.855,0,0,1,.855.855v48.595a.854.854,0,0,1-.855.855h-29.6a5.614,5.614,0,0,0-5.607,5.607A.854.854,0,0,1,106.9,159.04Zm.661-49.45v44.141a7.308,7.308,0,0,1,5.8-2.863H142.1V103.983H113.167A5.614,5.614,0,0,0,107.559,109.59ZM71.306,150.868h29.13a7.3,7.3,0,0,1,5.413,2.4V109.59a5.614,5.614,0,0,0-5.607-5.607H71.306Z" transform="translate(-69.596 -102.273)"/></g><g transform="translate(12.425 7.714)"><rect class="c" width="22.369" height="1.71"/></g><g transform="translate(12.425 18.513)"><rect class="c" width="22.369" height="1.71"/></g><g transform="translate(12.425 23.912)"><rect class="c" width="22.369" height="1.71"/></g><g transform="translate(48.679 30.854)"><rect class="c" width="23.912" height="1.71"/></g><g transform="translate(48.595 7.713)"><path class="c" d="M166.87,128.544H144.5a.854.854,0,0,1-.855-.855v-11.57a.855.855,0,0,1,.855-.855H166.87a.855.855,0,0,1,.855.855v11.57A.855.855,0,0,1,166.87,128.544Zm-21.514-1.71h20.659v-9.86H145.356Z" transform="translate(-143.646 -115.264)"/></g><g transform="translate(67.191 25.455)"><rect class="c" width="2.314" height="1.71"/></g><g transform="translate(62.563 25.455)"><rect class="c" width="2.314" height="1.71"/></g><g transform="translate(57.934 25.455)"><rect class="c" width="2.314" height="1.71"/></g><g transform="translate(53.306 25.455)"><rect class="c" width="2.314" height="1.71"/></g><g transform="translate(48.679 25.455)"><rect class="c" width="2.314" height="1.71"/></g><g transform="translate(30.937 13.113)"><rect class="c" width="2.314" height="1.71"/></g><g transform="translate(26.309 13.113)"><rect class="c" width="2.314" height="1.71"/></g><g transform="translate(21.681 13.113)"><rect class="c" width="2.314" height="1.71"/></g><g transform="translate(17.053 13.113)"><rect class="c" width="2.314" height="1.71"/></g><g transform="translate(12.425 13.113)"><rect class="c" width="2.314" height="1.71"/></g></g><g transform="translate(4.176 31.71)"><g transform="translate(0.715 39.414)"><path class="d" d="M64.861,204.274l4.042-4.138-4.024-3.981L60.4,200.583a2.114,2.114,0,0,0,0,3.007l.723.715A2.638,2.638,0,0,0,64.861,204.274Z" transform="translate(-59.769 -196.155)"/></g><g transform="translate(33.771 0.912)"><path class="d" d="M118.8,134.128l10.038-2.82.65.643-2.679,10.014-8.361,3.673-3.007-3.38Z" transform="translate(-115.442 -131.308)"/></g><g transform="translate(5.825 11.777)"><path class="d" d="M72.4,181.226l26.359-26.957c1.231-1.244,1.426-3.052.427-4.039s-2.807-.776-4.037.468L68.374,177.245Z" transform="translate(-68.374 -149.608)"/></g><g transform="translate(33.037)"><path class="b" d="M118.877,146.184l-.8-1.513,7.555-3.969,2.433-9.1-9.081,2.552-3.2,7.745-1.581-.653,3.359-8.13a.856.856,0,0,1,.559-.5l10.038-2.82a.857.857,0,0,1,.832.216l.65.644a.853.853,0,0,1,.224.828L127.191,141.5a.854.854,0,0,1-.428.536Z" transform="translate(-114.206 -129.772)"/></g><g transform="translate(0 10.636)"><path class="b" d="M63.023,186.677a4.495,4.495,0,0,1-4.458-4.537,4.065,4.065,0,0,1,1.319-2.951c.021-.02.044-.038.067-.056l4.391-3.267,26.879-27.174a3.4,3.4,0,0,1,4.8-.026l.19.188a3.4,3.4,0,0,1,.026,4.8L69.463,180.724l-3.324,4.536a.723.723,0,0,1-.053.066,4.066,4.066,0,0,1-2.936,1.35C63.107,186.677,63.065,186.677,63.023,186.677Zm-2.014-6.2a2.372,2.372,0,0,0-.735,1.7,2.783,2.783,0,0,0,2.824,2.794,2.372,2.372,0,0,0,1.688-.753l3.335-4.55a.84.84,0,0,1,.082-.1l.872-.882,25.947-26.232a1.684,1.684,0,0,0-.013-2.383l-.19-.188a1.687,1.687,0,0,0-2.383.012L65.512,177.115a.879.879,0,0,1-.1.084Z" transform="translate(-58.564 -147.685)"/></g><g transform="translate(23.057 21.411)"><rect class="b" width="1.71" height="7.307" transform="matrix(0.998, -0.07, 0.07, 0.998, 0, 0.12)"/></g><g transform="translate(28.935 15.469)"><rect class="b" width="1.71" height="7.307" transform="translate(0 0.12) rotate(-4.021)"/></g></g><g transform="translate(9.932 70.549)"><rect class="b" width="1.71" height="5.349" transform="matrix(0.683, -0.73, 0.73, 0.683, 0, 1.249)"/></g></g></g></g></g></svg>