<svg xmlns="http://www.w3.org/2000/svg" width="168.891" height="141.12" viewBox="0 0 168.891 141.12"><defs><style>.a{fill:#c9c9c9;}.b{fill:#fff;}.c{fill:#ededed;}.d,.f{fill:#009e4f;}.d{stroke:#009e4f;stroke-miterlimit:10;}.e{fill:#282828;}</style></defs><g transform="translate(-5.2 -27.525)"><g transform="translate(6.252 121.753)"><path class="a" d="M54.547,184.019l-34.528-.132L6.8,177.311,20.085,170.8h.132l34.4.132Zm-34.265-1.25,33.147.132.066-10.852-33.147-.132L9.365,177.311Z" transform="translate(-6.8 -170.8)"/><g transform="translate(7.02 3.728)"><rect class="a" width="5.722" height="1.118" transform="matrix(0.004, -1, 1, 0.004, 0, 5.722)"/></g><g transform="translate(13.351 0.066)"><path class="a" d="M30.717,183.856,27.1,180.37l3.157-3.025L27.1,174.32l3.617-3.42.789.855-2.762,2.565,3.157,3.025-3.157,3.025,2.7,2.631Z" transform="translate(-27.1 -170.9)"/></g><g transform="translate(49.391 0.197)"><path class="a" d="M81.9,184.122h0V183h0a5.417,5.417,0,0,0,5.393-5.393,5.389,5.389,0,0,0-5.393-5.393V171.1a6.634,6.634,0,0,1,4.6,1.907,6.511,6.511,0,0,1-4.6,11.115Z" transform="translate(-81.9 -171.1)"/></g><g transform="translate(43.257 0.705)"><rect class="a" width="11.97" height="1.118" transform="matrix(0.004, -1, 1, 0.004, 0, 11.97)"/></g><g transform="translate(17.389 5.983)"><rect class="a" width="1.118" height="26.636" transform="translate(0 1.118) rotate(-89.777)"/></g></g><g transform="translate(5.2 104.193)"><g transform="translate(0.658 0.526)"><path class="b" d="M6.529,144.9,6.2,155.949l52.351,1.513.329-11.049Zm5.064,7.3a1.646,1.646,0,0,1,.132-3.288,1.591,1.591,0,0,1,1.578,1.71A1.628,1.628,0,0,1,11.593,152.2Z" transform="translate(-6.2 -144.9)"/></g><g transform="translate(0.892 0.574)"><rect class="c" width="2.828" height="52.285" transform="translate(0 2.827) rotate(-88.375)"/></g><path class="a" d="M58.537,157.648a.5.5,0,0,1-.329.132L5.726,156.267a.568.568,0,0,1-.395-.2.483.483,0,0,1-.132-.395l.329-11.049a.537.537,0,0,1,.592-.526L58.6,145.613a.568.568,0,0,1,.395.2.483.483,0,0,1,.132.395l-.395,10.983A.6.6,0,0,1,58.537,157.648Zm-52.219-2.5L57.682,156.6l.263-9.931L6.581,145.218Z" transform="translate(-5.2 -144.1)"/><g transform="translate(13.578 0.836)"><rect class="a" width="5.261" height="1.118" transform="translate(0 5.259) rotate(-88.364)"/></g><g transform="translate(17.684 0.958)"><rect class="a" width="2.894" height="1.118" transform="translate(0 2.893) rotate(-88.365)"/></g><g transform="translate(22.313 1.087)"><rect class="a" width="2.894" height="1.118" transform="translate(0 2.893) rotate(-88.364)"/></g><g transform="translate(26.41 1.158)"><rect class="a" width="5.261" height="1.118" transform="matrix(0.029, -1, 1, 0.029, 0, 5.259)"/></g><g transform="translate(30.577 1.339)"><rect class="a" width="2.894" height="1.118" transform="translate(0 2.893) rotate(-88.382)"/></g><g transform="translate(35.207 1.471)"><rect class="a" width="2.894" height="1.118" transform="translate(0 2.893) rotate(-88.364)"/></g><g transform="translate(39.177 1.544)"><rect class="a" width="5.261" height="1.118" transform="translate(0 5.259) rotate(-88.364)"/></g><g transform="translate(48.302 1.865)"><rect class="a" width="2.894" height="0.46" transform="translate(0 2.893) rotate(-88.386)"/></g><g transform="translate(3.614 3.551)"><path class="a" d="M14.381,153.709a2.241,2.241,0,0,1-1.447.46A2.33,2.33,0,0,1,10.7,151.8a2.355,2.355,0,0,1,.723-1.644,2.6,2.6,0,0,1,1.644-.658,2.355,2.355,0,0,1,1.644.723,2.6,2.6,0,0,1,.658,1.644A2.357,2.357,0,0,1,14.381,153.709Zm-2.1-2.762a1.151,1.151,0,0,0-.46.921,1.217,1.217,0,1,0,2.433.066,1.385,1.385,0,0,0-.329-.855,1.06,1.06,0,0,0-.855-.395A1.264,1.264,0,0,0,12.277,150.947Z" transform="translate(-10.696 -149.5)"/></g></g><g transform="translate(5.332 31.783)"><g transform="translate(4.406 0.789)"><path class="b" d="M12.1,35.2v6.511a14.426,14.426,0,0,1,3.88,2.96,14.142,14.142,0,0,1-3.88,2.7v5a14.426,14.426,0,0,1,3.88,2.96,14.142,14.142,0,0,1-3.88,2.7v4.472a14.426,14.426,0,0,1,3.88,2.96,14.142,14.142,0,0,1-3.88,2.7v4.735a14.426,14.426,0,0,1,3.88,2.96,14.142,14.142,0,0,1-3.88,2.7v5a14.426,14.426,0,0,1,3.88,2.96,14.142,14.142,0,0,1-3.88,2.7v5.853h8.287V35.2Z" transform="translate(-12.1 -35.2)"/></g><g transform="translate(8.944 0.789)"><path class="b" d="M20.513,35.2v4.275A9.673,9.673,0,0,1,19,44.868,9.093,9.093,0,0,1,20.513,49.8,10.607,10.607,0,0,1,19,55.193a9.093,9.093,0,0,1,1.513,4.933A9.673,9.673,0,0,1,19,65.519a9.093,9.093,0,0,1,1.513,4.933A9.673,9.673,0,0,1,19,75.844a9.093,9.093,0,0,1,1.513,4.933A9.673,9.673,0,0,1,19,86.17,9.093,9.093,0,0,1,20.513,91.1v3.749H61.091V35.2Z" transform="translate(-19 -35.2)"/></g><g transform="translate(20.98 13.219)"><rect class="b" width="29.332" height="13.285"/></g><g transform="translate(3.617)"><path class="a" d="M57.595,95.229H11.689a.76.76,0,0,1-.789-.789V88.653h1.578v5H56.74V35.578h-44.2v5.853H10.966V34.789A.76.76,0,0,1,11.755,34H57.661a.76.76,0,0,1,.789.789V94.44A.858.858,0,0,1,57.595,95.229Z" transform="translate(-10.9 -34)"/></g><g transform="translate(0 0.789)"><path class="a" d="M15.923,94.851H14.344V91.3a7.8,7.8,0,0,0-.855-3.486,5.881,5.881,0,0,1-4.143,2.17A3.886,3.886,0,0,1,5.4,86.235a3.835,3.835,0,0,1,3.946-3.683,5.7,5.7,0,0,1,4.143,2.368,9.18,9.18,0,0,0,.855-3.946,7.8,7.8,0,0,0-.855-3.486,5.881,5.881,0,0,1-4.143,2.17A3.886,3.886,0,0,1,5.4,75.91a3.835,3.835,0,0,1,3.946-3.683,5.7,5.7,0,0,1,4.143,2.368,9.18,9.18,0,0,0,.855-3.946,7.8,7.8,0,0,0-.855-3.486,5.881,5.881,0,0,1-4.143,2.17A3.886,3.886,0,0,1,5.4,65.585,3.835,3.835,0,0,1,9.346,61.9a5.7,5.7,0,0,1,4.143,2.368,9.18,9.18,0,0,0,.855-3.946,7.8,7.8,0,0,0-.855-3.486,5.881,5.881,0,0,1-4.143,2.17A3.886,3.886,0,0,1,5.4,55.259a3.835,3.835,0,0,1,3.946-3.683,5.7,5.7,0,0,1,4.143,2.368,9.1,9.1,0,0,0,.855-3.88,8.019,8.019,0,0,0-.855-3.486,5.881,5.881,0,0,1-4.143,2.17A3.886,3.886,0,0,1,5.4,45a3.835,3.835,0,0,1,3.946-3.683,5.7,5.7,0,0,1,4.143,2.368,9.18,9.18,0,0,0,.855-3.946V35.2h1.578v4.538a10.312,10.312,0,0,1-1.447,5.393A10.491,10.491,0,0,1,15.923,50h0v.066a10.524,10.524,0,0,1-1.447,5.327,10.015,10.015,0,0,1,1.447,4.933,10.312,10.312,0,0,1-1.447,5.393,10.015,10.015,0,0,1,1.447,4.933,10.312,10.312,0,0,1-1.447,5.393,10.015,10.015,0,0,1,1.447,4.933,10.312,10.312,0,0,1-1.447,5.393A10.015,10.015,0,0,1,15.923,91.3ZM9.28,84.131c-.592,0-2.368.395-2.368,2.039A2.336,2.336,0,0,0,9.28,88.34,4.486,4.486,0,0,0,12.569,86.3,4.708,4.708,0,0,0,9.28,84.131Zm0-10.325c-.592,0-2.368.395-2.368,2.039a2.336,2.336,0,0,0,2.368,2.17,4.486,4.486,0,0,0,3.288-2.039C11.582,74.726,10.333,73.805,9.28,73.805Zm0-10.325c-.592,0-2.368.395-2.368,2.039a2.336,2.336,0,0,0,2.368,2.17,4.486,4.486,0,0,0,3.288-2.039C11.582,64.4,10.333,63.48,9.28,63.48Zm0-10.26c-.592,0-2.368.395-2.368,2.039a2.336,2.336,0,0,0,2.368,2.17,4.486,4.486,0,0,0,3.288-2.039A4.708,4.708,0,0,0,9.28,53.22Zm0-10.26c-.592,0-2.368.395-2.368,2.039A2.336,2.336,0,0,0,9.28,47.17a4.486,4.486,0,0,0,3.288-2.039A4.708,4.708,0,0,0,9.28,42.961Z" transform="translate(-5.4 -35.2)"/></g><g transform="translate(20.191 12.43)"><path class="a" d="M66.221,67.763H36.889a.76.76,0,0,1-.789-.789V53.689a.76.76,0,0,1,.789-.789H66.221a.76.76,0,0,1,.789.789V66.974A.8.8,0,0,1,66.221,67.763ZM37.678,66.119H65.432V54.478H37.678Z" transform="translate(-36.1 -52.9)"/></g><g transform="translate(21.703 31.503)"><rect class="a" width="14.272" height="1.578"/></g><g transform="translate(21.703 37.29)"><rect class="a" width="14.272" height="1.578"/></g><g transform="translate(21.703 43.078)"><rect class="a" width="14.272" height="1.578"/></g><g transform="translate(2.894 13.219)"><rect class="a" width="1.578" height="4.998"/></g><g transform="translate(2.894 24.005)"><rect class="a" width="1.578" height="4.143"/></g><g transform="translate(2.894 34.791)"><rect class="a" width="1.578" height="4.143"/></g><g transform="translate(2.894 44.722)"><rect class="a" width="1.578" height="4.998"/></g><g transform="translate(41.302 19.073)"><rect class="a" width="2.236" height="1.578"/></g><g transform="translate(36.764 19.073)"><rect class="a" width="2.236" height="1.578"/></g><g transform="translate(32.226 19.073)"><rect class="a" width="2.236" height="1.578"/></g></g><g transform="translate(128.119 42.372)"><g transform="translate(0.789 10.917)"><path class="b" d="M229.735,126.548a2.807,2.807,0,0,1-2.828,2.828H196.128a2.807,2.807,0,0,1-2.828-2.828V69.528a2.807,2.807,0,0,1,2.828-2.828h30.779a2.807,2.807,0,0,1,2.828,2.828Z" transform="translate(-193.3 -66.7)"/></g><g transform="translate(0 21.901)"><path class="a" d="M226.694,136.277H195.717a3.607,3.607,0,0,1-3.617-3.617V124.9h1.644v7.761a1.979,1.979,0,0,0,1.973,1.973h30.976a1.979,1.979,0,0,0,1.973-1.973V83.4h1.644v49.194A3.581,3.581,0,0,1,226.694,136.277Z" transform="translate(-192.1 -83.4)"/></g><g transform="translate(0.066 9.734)"><path class="a" d="M193.844,92.522H192.2V68.517a3.607,3.607,0,0,1,3.617-3.617h15.85v1.644h-15.85a1.979,1.979,0,0,0-1.973,1.973Z" transform="translate(-192.2 -64.9)"/></g><g transform="translate(17.954 50.378)"><rect class="a" width="13.022" height="1.644"/></g><g transform="translate(24.4 56.034)"><rect class="a" width="6.511" height="1.644"/></g><g transform="translate(17.954 69.056)"><rect class="a" width="3.223" height="1.644"/></g><g transform="translate(13.219)"><g transform="translate(1.315 0.855)"><path class="b" d="M244.913,51.4H214.2V73.629h4.735v7.563l7.563-7.563h18.415Z" transform="translate(-214.2 -51.4)"/></g><path class="a" d="M218.119,81.8a.593.593,0,0,1-.329-.066.855.855,0,0,1-.526-.789V74.237h-4.209a.871.871,0,0,1-.855-.855V50.955a.871.871,0,0,1,.855-.855H244.1a.871.871,0,0,1,.855.855V73.382a.871.871,0,0,1-.855.855H226.011l-7.3,7.366A.918.918,0,0,1,218.119,81.8Zm-4.209-9.273h4.209a.871.871,0,0,1,.855.855v5.59l6.116-6.182a.979.979,0,0,1,.592-.263h17.626V51.81h-29.4Z" transform="translate(-212.2 -50.1)"/><g transform="translate(12.43 7.3)"><rect class="a" width="2.17" height="1.644"/></g><g transform="translate(8.089 7.3)"><rect class="a" width="2.17" height="1.644"/></g><g transform="translate(21.111 7.3)"><rect class="a" width="2.17" height="1.644"/></g><g transform="translate(16.771 7.3)"><rect class="a" width="2.17" height="1.644"/></g><g transform="translate(25.452 7.3)"><rect class="a" width="2.17" height="1.644"/></g><g transform="translate(8.089 12.364)"><rect class="a" width="16.639" height="1.644"/></g><g transform="translate(8.089 17.363)"><rect class="a" width="8.681" height="1.644"/></g></g><g transform="translate(18.744 44.656)"><rect class="a" width="2.433" height="1.644"/></g><g transform="translate(28.477 44.656)"><rect class="a" width="2.433" height="1.644"/></g><g transform="translate(23.61 44.656)"><rect class="a" width="2.433" height="1.644"/></g><g transform="translate(0.855 14.929)"><rect class="a" width="13.088" height="1.644"/></g><g transform="translate(3.551 66.359)"><rect class="a" width="34.199" height="1.644"/></g><g transform="translate(13.548 56.034)"><rect class="a" width="9.207" height="1.644"/></g><g transform="translate(13.548 61.164)"><rect class="a" width="17.363" height="1.644"/></g><g transform="translate(19.27 26.373)"><path class="a" d="M233.041,105.392H221.4v-1.644h10.786V90.2h1.644v14.4A.726.726,0,0,1,233.041,105.392Z" transform="translate(-221.4 -90.2)"/></g></g><g transform="translate(137.787 130.961)"><rect class="a" width="9.405" height="1.118"/></g><g transform="translate(43.411 77.623)"><g transform="translate(0.658 1.315)"><rect class="b" width="89.378" height="61.098"/></g><g transform="translate(0.658 7.826)"><rect class="b" width="89.378" height="46.826"/></g><g transform="translate(0.658 7.826)"><path class="b" d="M149.666,115.6v42.946H64.3v3.88h89.312V115.6Z" transform="translate(-64.3 -115.6)"/></g><path class="d" d="M153.072,166.9H64.221a.9.9,0,0,1-.921-.921V104.621a.9.9,0,0,1,.921-.921h88.852a.9.9,0,0,1,.921.921v61.427A1.042,1.042,0,0,1,153.072,166.9ZM65.01,165.127h87.01V105.476H65.01Z" transform="translate(-63.3 -103.7)"/><g transform="translate(0.921 6.577)"><rect class="d" width="88.852" height="1.841"/></g><g transform="translate(0.921 53.732)"><rect class="d" width="88.852" height="1.841"/></g><g transform="translate(25.255 77.869)"><path class="d" d="M142.081,230.518h-39.46a.9.9,0,0,1-.921-.921v-2.631a4.856,4.856,0,0,1,4.867-4.867h31.568A4.856,4.856,0,0,1,143,226.967V229.6C142.87,230.124,142.542,230.518,142.081,230.518Zm-38.671-1.841h37.685v-1.71a3.017,3.017,0,0,0-3.025-3.025H106.5a3.017,3.017,0,0,0-3.025,3.025l-.066,1.71Z" transform="translate(-101.7 -222.1)"/></g><g transform="translate(34.91 61.492)"><path class="d" d="M137.373,215.418H117.314a.986.986,0,0,1-.921-.723.885.885,0,0,1,.526-.986c.132-.066,3.223-1.513,3.223-6.314a13.353,13.353,0,0,0-3.486-8.681.919.919,0,0,1-.2-.986.881.881,0,0,1,.855-.526h20.059a.855.855,0,0,1,.789.526,1.054,1.054,0,0,1-.066.986c-.066.066-3.551,4.6-3.551,8.813A8.255,8.255,0,0,0,137.9,213.9a.843.843,0,0,1,.329.987A.993.993,0,0,1,137.373,215.418Zm-17.428-1.841h15.192a9.546,9.546,0,0,1-2.368-6.182c0-3.288,1.776-6.577,2.894-8.418H119.221a14.943,14.943,0,0,1,2.762,8.418A10.058,10.058,0,0,1,119.945,213.576Z" transform="translate(-116.381 -197.2)"/></g><g transform="translate(11.707 16.442)"><rect class="b" width="35.646" height="24.794" transform="translate(0.921 0.921)"/><path class="e" d="M117.6,155.336H82.021a.9.9,0,0,1-.921-.921V129.621a.9.9,0,0,1,.921-.921h35.646a.9.9,0,0,1,.921.921v24.794A.956.956,0,0,1,117.6,155.336Zm-34.725-1.842h33.8V130.541h-33.8Z" transform="translate(-81.1 -128.7)"/></g><g transform="translate(26.044 22.545)"><path class="b" d="M104.3,140.262v10.194a.882.882,0,0,0,1.315.723l7.5-5.13a.8.8,0,0,0,0-1.381l-7.5-5.13A.869.869,0,0,0,104.3,140.262Z" transform="translate(-103.379 -138.473)"/><path class="f" d="M104.61,151.738a1.562,1.562,0,0,1-.789-.2,1.771,1.771,0,0,1-.921-1.578V139.769a1.771,1.771,0,0,1,.921-1.578,1.709,1.709,0,0,1,1.841.132l7.5,5.13a1.807,1.807,0,0,1,.789,1.447,1.65,1.65,0,0,1-.789,1.447l-7.5,5.13A2.083,2.083,0,0,1,104.61,151.738Zm.066-11.838v10l7.3-5Zm0-.132h0Z" transform="translate(-102.9 -137.98)"/></g><g transform="translate(56.56 16.508)"><rect class="e" width="21.966" height="1.841" transform="translate(0)"/></g><g transform="translate(56.56 22.821)"><rect class="e" width="21.966" height="1.841" transform="translate(0)"/></g><g transform="translate(56.56 29.201)"><rect class="e" width="21.966" height="1.841" transform="translate(0)"/></g></g><g transform="translate(20.392 163.516)"><path class="e" d="M159.769,239.43H33.43a5.136,5.136,0,0,1-5.13-5.13H164.965A5.236,5.236,0,0,1,159.769,239.43Z" transform="translate(-28.3 -234.3)"/></g><g transform="translate(8.488 162.529)"><rect class="f" width="160.472" height="1.907"/></g><g transform="translate(146.666 139.116)"><g transform="translate(7.761)"><rect class="a" width="1.118" height="4.933"/></g><g transform="translate(11.838 7.3)"><rect class="a" width="4.933" height="1.118"/></g><g transform="translate(7.761 11.641)"><rect class="a" width="1.118" height="4.933"/></g><g transform="translate(0 7.3)"><rect class="a" width="4.933" height="1.118"/></g></g><g transform="translate(70.533 27.525)"><g transform="translate(3.723 0.773)"><path class="b" d="M110.66,43.235l-.46-1.052L139.072,28.7l12.1,25.912-4.867,2.236Z" transform="translate(-110.2 -28.7)"/></g><g transform="translate(0.866 6.374)"><rect class="b" width="32.949" height="29.53" transform="translate(0 10.26) rotate(-18.143)"/></g><g transform="translate(9.576 6.758)"><path class="b" d="M140.014,38.326,148.5,64.173l-29.4,9.6.526,1.71,29.727-9.734,1.25-.46-.526-1.644L141.592,37.8Z" transform="translate(-119.1 -37.8)"/></g><g transform="translate(11.387 1.399)"><path class="a" d="M132.341,45.863a2.92,2.92,0,0,1-3.683-1.841l-2.894-8.944,1.447-.46,2.894,8.944a1.352,1.352,0,0,0,2.565-.855l-3.025-9.339a3.224,3.224,0,0,0-6.116,2.039l1.644,4.933-1.447.46-1.644-4.933a4.742,4.742,0,0,1,9.01-2.96l3.025,9.339A2.84,2.84,0,0,1,132.341,45.863Z" transform="translate(-121.853 -29.653)"/></g><g transform="translate(0 5.534)"><path class="a" d="M146.013,65.246l-31.305,10.26a.766.766,0,0,1-.987-.526l-9.142-27.82a.766.766,0,0,1,.526-.987l31.371-10.194a.766.766,0,0,1,.987.526l9.076,27.754A.742.742,0,0,1,146.013,65.246ZM114.97,73.8,144.829,64l-8.616-26.307-29.858,9.8Z" transform="translate(-104.539 -35.939)"/></g><g transform="translate(3.016)"><path class="a" d="M146.267,57.17l-.658-1.381,4.209-1.973L138.375,29.35,110.884,42.175l.2.329-1.381.658-.526-1.052a.913.913,0,0,1,0-.592.884.884,0,0,1,.395-.46l28.872-13.482a.912.912,0,0,1,.592,0,.884.884,0,0,1,.46.395l12.1,25.912a.912.912,0,0,1,0,.592.884.884,0,0,1-.395.46Z" transform="translate(-109.125 -27.525)"/></g><g transform="translate(7.964 18.63)"><rect class="a" width="8.484" height="1.578" transform="translate(0 2.642) rotate(-18.143)"/></g><g transform="translate(27.972 21.406)"><rect class="a" width="3.749" height="1.578" transform="translate(0 1.167) rotate(-18.143)"/></g><g transform="translate(10.243 23.53)"><rect class="a" width="15.455" height="1.578" transform="translate(0 4.813) rotate(-18.143)"/></g><g transform="translate(12.585 28.44)"><rect class="a" width="22.361" height="1.578" transform="translate(0 6.963) rotate(-18.143)"/></g></g></g></svg>